<svg width="942" height="523" viewBox="0 0 942 523" fill="none" xmlns="http://www.w3.org/2000/svg">
<path d="M469.4 410.1C469.4 394 482.325 381.1 498.45 381.1C514.55 381.1 527.45 394 527.45 410.1C527.463 413.913 526.722 417.691 525.27 421.217C523.817 424.743 521.682 427.947 518.987 430.644C516.292 433.342 513.09 435.48 509.565 436.935C506.041 438.391 502.263 439.135 498.45 439.125C494.635 439.141 490.854 438.403 487.325 436.952C483.796 435.501 480.59 433.366 477.889 430.671C475.189 427.975 473.049 424.772 471.592 421.246C470.135 417.72 469.39 413.915 469.4 410.1ZM587.5 410.125C587.5 394 600.425 381.075 616.525 381.075C632.625 381.075 645.55 394 645.55 410.1C645.55 426.2 632.625 439.125 616.55 439.125C612.735 439.141 608.954 438.403 605.425 436.952C601.896 435.501 598.69 433.366 595.989 430.671C593.289 427.975 591.149 424.772 589.692 421.246C588.235 417.72 587.49 413.94 587.5 410.125ZM313.75 410.125C313.75 394 326.675 381.075 342.775 381.075C358.875 381.075 371.775 394 371.775 410.1C371.775 426.2 358.875 439.125 342.775 439.125C338.962 439.138 335.184 438.397 331.658 436.945C328.132 435.492 324.928 433.357 322.231 430.662C319.533 427.967 317.395 424.765 315.94 421.24C314.484 417.716 313.74 413.938 313.75 410.125ZM195.65 410.125C195.65 394 208.575 381.075 224.675 381.075C240.775 381.075 253.7 394 253.7 410.1C253.713 413.915 252.971 417.696 251.518 421.223C250.064 424.75 247.926 427.955 245.228 430.653C242.53 433.351 239.325 435.489 235.798 436.943C232.271 438.396 228.49 439.138 224.675 439.125C220.864 439.135 217.088 438.392 213.565 436.938C210.043 435.484 206.842 433.348 204.147 430.653C201.452 427.958 199.316 424.757 197.862 421.234C196.408 417.712 195.64 413.936 195.65 410.125ZM434.425 358.825H409.175V460.4H434.425V358.825ZM253.5 460.4H278.75V358.825H253.5V366.975C244.698 360.849 234.223 357.585 223.5 357.625C194.45 357.625 171 381.075 171 410.125C171 439.325 194.45 462.6 223.5 462.6C234.625 462.6 244.95 459.225 253.5 453.25V460.4ZM645.35 460.4H670.6V358.825H645.35V366.975C636.548 360.849 626.073 357.585 615.35 357.625C586.3 357.625 562.85 381.075 562.85 410.125C562.827 417.025 564.169 423.861 566.8 430.239C569.43 436.618 573.297 442.413 578.177 447.291C583.057 452.169 588.854 456.032 595.234 458.66C601.614 461.287 608.45 462.626 615.35 462.6C626.475 462.6 636.8 459.225 645.35 453.25V460.4ZM679.95 427.4C680.75 447.9 698.25 462.4 727.45 462.4C751.325 462.4 771 452.05 771 429.2C771 413.3 762.05 403.95 741.375 399.95L725.275 396.8C714.925 394.8 707.775 392.8 707.775 386.65C707.775 379.9 714.725 376.9 723.475 376.9C736.225 376.9 741.375 383.275 741.775 390.825H767.225C765.825 370.95 749.925 357.625 724.275 357.625C697.85 357.625 682.125 372.125 682.125 391.025C682.125 414.075 700.825 417.85 716.925 420.85L730.25 423.225C739.8 425.025 743.975 427.8 743.975 433.375C743.975 438.35 739.2 443.3 727.85 443.3C711.35 443.3 706 434.75 705.8 427.4H679.95ZM371.6 324.225V366.975C362.798 360.849 352.323 357.585 341.6 357.625C312.55 357.625 289.1 381.075 289.1 410.125C289.1 439.325 312.55 462.6 341.6 462.6C352.7 462.6 363.05 459.225 371.6 453.25V460.4H396.85V324.225H371.6ZM527.25 324.225V366.975C518.448 360.849 507.973 357.585 497.25 357.625C468.225 357.625 444.75 381.075 444.75 410.125C444.727 417.025 446.069 423.861 448.7 430.239C451.33 436.618 455.197 442.413 460.077 447.291C464.957 452.169 470.754 456.032 477.134 458.66C483.514 461.287 490.35 462.626 497.25 462.6C508.375 462.6 518.7 459.225 527.25 453.25V460.4H552.5V324.225H527.25ZM236.6 294.225L253.7 324.225H371.6L324.875 243.5L236.625 294.2L236.6 294.225ZM434.425 349.475V324.225H527.25L428.25 152.85L339.775 203.55L409.175 324.225V349.475H434.425ZM564.85 324.225H682.925L530.25 60L441.975 110.9L564.85 324.225Z" fill="white"/>
</svg>
