<svg width="942" height="523" viewBox="0 0 942 523" fill="none" xmlns="http://www.w3.org/2000/svg">
<path fill-rule="evenodd" clip-rule="evenodd" d="M698.057 275.032H716.556H716.573C718.508 275.068 720.116 273.516 720.186 271.541V219.18C720.186 212.604 720.531 206.664 723.127 200.725C724.909 196.208 729.107 193.166 733.872 192.941C745.705 192.941 745.591 206.182 745.501 216.584C745.494 217.462 745.486 218.319 745.486 219.146V271.977C745.715 273.672 747.099 274.958 748.772 275.032H767.435C769.204 275.069 770.729 273.763 771 271.977V210.758C771 201.346 771 188.243 766.154 180.459C760.912 172.071 752.798 169 744.484 169C731.67 169 724.393 175.342 719.201 188.646H718.84V173.765C718.465 172.209 717.122 171.098 715.554 171.046H698.337C696.518 171.001 694.968 172.387 694.772 174.234V271.541C694.796 273.406 696.233 274.933 698.057 275.032ZM680.644 223.995C680.644 193.294 665.743 169.134 638.193 169.134C611.349 169.134 596.448 192.891 596.448 222.972C596.448 253.052 611.167 277.212 638.193 277.212C664.216 277.212 680.644 253.674 680.644 223.995ZM623.818 219.901C623.818 208.024 624.688 188.998 638.373 188.998C644.254 188.998 648.411 191.699 650.498 198.41C652.929 206.178 653.274 216.009 653.274 224.197C653.274 236.678 652.731 257.146 638.192 257.146C623.811 257.146 623.816 232.33 623.818 220.295V219.901ZM276.685 275.233H295.232H295.249C296.179 275.255 297.081 274.897 297.753 274.239C298.425 273.581 298.813 272.676 298.83 271.725V220.169V219.363C298.822 208.152 298.812 193.327 311.644 193.327C323.507 193.327 323.324 206.353 323.176 216.873C323.16 218.006 323.144 219.113 323.144 220.169V271.743C323.176 273.605 324.609 275.126 326.43 275.233H345.027C345.955 275.249 346.853 274.89 347.521 274.233C348.19 273.575 348.574 272.674 348.593 271.725V220.169L348.59 218.944C348.58 213.481 348.564 206.11 350.334 201.531C352.138 196.849 356.499 193.715 361.423 193.561C366.795 193.561 370.951 195.406 372.331 201.95C373.036 205.099 372.944 212.399 372.884 217.24C372.87 218.382 372.857 219.388 372.857 220.169V271.743C372.881 273.608 374.318 275.135 376.142 275.233H394.691C395.622 275.255 396.523 274.897 397.195 274.239C397.866 273.581 398.254 272.676 398.271 271.725V210.338C398.271 208.842 398.297 207.313 398.323 205.768C398.475 196.602 398.636 186.844 393.589 179.837C387.472 171.892 377.635 167.932 367.853 169.479C358.071 171.026 349.868 177.839 346.391 187.303C341.183 175.006 333.74 169.285 322.306 169.285C310.872 169.285 302.379 175.006 297.878 187.303H297.533V174.604C297.435 172.793 296.02 171.348 294.246 171.248H276.947C275.037 171.229 273.462 172.77 273.399 174.72V272.028C273.567 273.778 274.964 275.141 276.685 275.233ZM244.402 275.97C243.181 277.053 241.425 277.234 240.016 276.424C234.76 271.957 233.175 269.543 230.741 265.836C230.323 265.197 229.878 264.522 229.386 263.79C219.184 274.393 211.972 277.565 198.781 277.565C183.157 277.565 171 267.716 171 248.02C171 232.635 179.214 222.184 190.714 217.049C199.206 213.245 210.536 212.063 220.332 211.042C222.153 210.852 223.921 210.668 225.609 210.473V208.024C225.609 207.556 225.612 207.08 225.616 206.596C225.648 202.42 225.685 197.77 223.357 194.266C221.09 190.777 216.786 189.351 212.942 189.351C205.861 189.351 199.553 193.059 198.008 200.726C197.813 202.514 196.465 203.946 194.723 204.216L176.881 202.219C175.991 202.089 175.192 201.592 174.67 200.843C174.149 200.095 173.95 199.161 174.121 198.26C178.245 175.979 197.959 169.252 215.62 169.252C224.655 169.252 236.451 171.701 243.549 178.68C251.88 186.646 251.828 197.075 251.772 208.47C251.768 209.411 251.762 210.358 251.762 211.312V240.822C251.762 248.77 254.65 252.724 257.691 256.888C258.052 257.383 258.417 257.88 258.778 258.388C259.961 260.066 260.223 262.163 258.778 263.421C254.983 266.66 248.247 272.632 244.55 276.004L244.402 275.97ZM225.69 229.766L225.691 230.685C225.697 237.664 225.703 243.581 222.224 249.898C219.267 255.234 214.585 258.522 209.36 258.522C202.247 258.522 198.09 252.986 198.09 244.765C198.09 228.625 212.268 225.689 225.69 225.689V229.766ZM500.93 256.819C501.292 257.314 501.656 257.813 502.018 258.321C503.266 260.066 503.529 262.113 501.935 263.27C498.14 266.508 491.405 272.497 487.709 275.853C486.479 276.92 484.729 277.094 483.323 276.289C478.043 271.804 476.479 269.425 474.011 265.669L474.004 265.659C473.594 265.034 473.158 264.372 472.677 263.655C462.491 274.259 455.23 277.43 442.086 277.43C426.463 277.43 414.306 267.582 414.306 247.902C414.306 232.501 422.471 222.049 434.102 216.915C442.613 213.096 454.006 211.919 463.83 210.906C465.611 210.721 467.345 210.544 468.996 210.355V207.956C468.996 207.491 469 207.016 469.004 206.536C469.036 202.359 469.072 197.707 466.729 194.216C464.527 190.726 460.141 189.283 456.314 189.283C449.233 189.283 442.957 192.991 441.396 200.659C441.195 202.445 439.85 203.873 438.11 204.148L420.122 202.168C419.225 202.043 418.419 201.545 417.894 200.793C417.368 200.039 417.169 199.099 417.345 198.192C421.485 175.896 441.199 169.184 458.86 169.184C467.879 169.184 479.675 171.634 486.789 178.613C495.137 186.538 495.078 196.885 495.014 208.223C495.009 209.219 495.003 210.234 495.003 211.244V240.772C495.003 248.704 497.89 252.655 500.93 256.819ZM452.699 258.421C457.907 258.421 462.605 255.133 465.546 249.815C469.037 243.462 469.034 237.517 469.03 230.451V229.699V225.606C455.607 225.606 441.43 228.524 441.43 244.68C441.43 252.884 445.586 258.421 452.699 258.421ZM517.723 174.385V188.243C517.713 189.193 518.085 190.107 518.753 190.769C519.42 191.431 520.324 191.786 521.254 191.75H553.191L516.572 245.436C514.901 248.316 514.111 251.64 514.305 254.982V269.158C514.305 271.206 516.523 273.537 518.642 272.38C538.84 261.685 562.857 261.641 583.092 272.262C585.408 273.487 587.593 271.121 587.593 269.075V254.176C587.531 251.899 586.276 249.83 584.307 248.757C573.645 242.634 561.241 240.839 549.511 241.124L581.12 195.054C584.06 190.927 585.704 188.31 585.704 186.313V174.385C585.713 173.438 585.343 172.527 584.679 171.865C584.015 171.203 583.115 170.847 582.187 170.879H521.189C520.26 170.826 519.354 171.177 518.693 171.845C518.031 172.513 517.679 173.437 517.723 174.385Z" fill="white"/>
<path fill-rule="evenodd" clip-rule="evenodd" d="M548.229 337.105C552.451 326.384 561.848 302.359 557.38 296.537H557.412C552.963 290.703 527.991 293.765 516.759 295.142L516.735 295.145C513.318 295.564 512.792 292.528 515.864 290.33C535.809 276.019 568.485 280.113 572.28 284.944C576.075 289.776 571.245 323.23 552.566 339.201C549.691 341.651 546.947 340.342 548.229 337.105ZM414.024 353.646C457.461 353.646 508.045 339.639 542.889 313.382V313.432C548.655 309.003 543.71 302.494 537.829 305.044C499.795 321.427 458.967 329.98 417.688 330.209C360.418 330.209 305.021 314.171 260.204 287.546C256.278 285.213 253.353 289.324 256.639 292.326C299.786 332.081 355.913 353.95 414.024 353.646Z" fill="white"/>
</svg>
