<?xml version="1.0" encoding="utf-8"?>
<!-- Generator: Adobe Illustrator 27.1.1, SVG Export Plug-In . SVG Version: 6.00 Build 0)  -->
<svg version="1.1" id="Layer_1" xmlns="http://www.w3.org/2000/svg" xmlns:xlink="http://www.w3.org/1999/xlink" x="0px" y="0px"
	 viewBox="0 0 540 540" style="enable-background:new 0 0 540 540;" xml:space="preserve">
<style type="text/css">
	.st0{fill:url(#SVGID_1_);}
	.st1{fill:#FFFFFF;}
</style>
<linearGradient id="SVGID_1_" gradientUnits="userSpaceOnUse" x1="90.2985" y1="517.5018" x2="430.2985" y2="64.5018">
	<stop  offset="0" style="stop-color:#F42267"/>
	<stop  offset="1" style="stop-color:#4A2D7F"/>
</linearGradient>
<path class="st0" d="M285.7,57.2c6.9,5.3,12.8,11.8,18.9,17.9c1.6,1.6,3.2,3.2,4.8,4.8c4.3,4.3,8.6,8.6,12.9,12.9
	c2.7,2.7,5.4,5.4,8.1,8.1c7.5,7.5,15,14.9,22.5,22.4c0.7,0.7,0.7,0.7,1.4,1.4c1,1,1.9,1.9,2.9,2.9c0.5,0.5,1,1,1.5,1.5
	c0.5,0.5,1,1,1.5,1.5c7.8,7.8,15.6,15.6,23.4,23.3c8,8,16.1,16,24.1,24c4.5,4.5,9,9,13.5,13.4c4.2,4.2,8.5,8.4,12.7,12.7
	c1.5,1.5,3.1,3.1,4.6,4.6c11.6,11.4,21.7,22.8,21.8,40c-0.5,11-3.2,19.8-10.5,28.1c-0.5,0.6-1,1.1-1.4,1.7c-7,7.8-17.1,12-27.4,12.7
	c-8.7,0.3-16.5-0.7-24.2-5.1c-13.1-5.7-41,8.5-53.2,13.2c-20.8,8.2-40.4,18.6-58.7,31.4c0.9,1,1.8,2.1,2.7,3.1
	c0.5,0.6,1,1.2,1.5,1.8c1.4,1.7,2.9,3.2,4.4,4.8c8.2,9.5,9.1,20.8,8.6,32.7c-1,13.6-10.6,23.6-20.1,32.4c1.2,2.8,2.6,4.7,4.7,6.8
	c0.6,0.6,1.1,1.1,1.7,1.7c0.6,0.6,1.2,1.2,1.9,1.8c1.3,1.3,2.6,2.6,3.9,3.9c2.1,2,4.1,4,6.2,6c12.1,11.8,21.2,21.8,21.8,39.5
	c-0.3,12.3-4.7,22.3-13.1,31.2c-9.1,8.6-19.5,11.6-31.9,11.6c-14.3-1.2-24-8.5-33.8-18.4c-0.7-0.7-1.4-1.4-2-2
	c-2.2-2.2-4.4-4.4-6.6-6.6c-1.5-1.5-3.1-3.1-4.6-4.6c-4-4-8.1-8.1-12.1-12.1c-4.1-4.1-8.2-8.3-12.4-12.4
	c-8.1-8.1-16.2-16.2-24.2-24.3c-1.1,0.9-2.1,1.8-3.2,2.7c-0.6,0.5-1.2,1-1.8,1.5c-1.8,1.6-3.4,3.3-5,5.2c-7,7.2-17.1,11.5-27.1,11.7
	c-11.9,0.1-21-1.8-30.2-9.8c-0.9-0.8-0.9-0.8-1.8-1.6c-7.8-6.9-15.2-14.3-22.6-21.7c-2.3-2.3-4.6-4.6-7-6.9c-1.5-1.5-3-3-4.5-4.5
	c-1-1-1-1-2.1-2C65.7,391.5,60,380.4,60,365.4c0.2-14.2,7.1-24.1,17-33.8c1.2-1.2,1.2-1.2,2.4-2.4c2.2-2.2,4.4-4.3,6.6-6.5
	c2.3-2.3,4.6-4.6,6.9-6.9c4.4-4.3,8.7-8.7,13.1-13c6.4-6.3,12.8-12.7,19.2-19c0.5-0.5,0.9-0.9,1.4-1.4c0.9-0.9,1.9-1.9,2.8-2.8
	c3.2-3.1,6.3-6.3,9.5-9.4c1.7-1.7,3.3-3.3,5-5c0.7-0.7,1.5-1.5,2.3-2.2c37-36.8,72.8-93.8,77.4-146.6c-0.3-3.2-1.3-5.5-2.6-8.4
	c-4.8-10.5-4.6-21.2-0.8-32c5.2-12.3,13.3-19.6,25.4-24.9C259.1,46.1,274.2,49,285.7,57.2z M249.1,83.1c-2.2,3.2-3,4.8-3,8.7
	c1.8,6.4,4.6,10,9.2,14.6c0.7,0.7,1.3,1.3,2,2c2.2,2.2,4.4,4.4,6.6,6.6c1.6,1.6,3.1,3.1,4.7,4.7c4.3,4.3,8.5,8.5,12.8,12.8
	c4,4,8,8,12,12c7.9,7.9,15.9,15.9,23.9,23.8c7.7,7.7,15.4,15.4,23.1,23.1c8.4,8.4,16.8,16.8,25.2,25.2c4.4,4.4,8.9,8.9,13.3,13.3
	c4.2,4.2,8.4,8.3,12.5,12.5c1.5,1.5,3.1,3.1,4.6,4.6c2.1,2.1,4.2,4.2,6.3,6.3c0.9,0.9,0.9,0.9,1.8,1.8c4,4,8,7,13.8,7.6
	c5-0.7,7.6-2.3,11.2-5.9c2.4-4.1,2.7-7.7,1.9-12.3c-3.1-5.5-7.8-10-12.3-14.4c-1-1-1-1-1.9-1.9c-2.1-2.1-4.3-4.3-6.4-6.4
	c-1.5-1.5-3.1-3.1-4.6-4.6c-4.1-4.2-8.3-8.3-12.5-12.5c-2.6-2.6-5.2-5.2-7.8-7.8c-8.6-8.6-17.2-17.2-25.8-25.8
	c-0.7-0.7-0.7-0.7-1.4-1.4c-0.5-0.5-0.9-0.9-1.4-1.4c-7.5-7.5-15-15-22.5-22.6c-7.7-7.7-15.4-15.5-23.1-23.2c-4.3-4.3-8.7-8.7-13-13
	c-4.1-4.1-8.1-8.1-12.2-12.2c-1.5-1.5-3-3-4.5-4.5c-2-2-4.1-4.1-6.1-6.1c-0.6-0.6-1.2-1.2-1.8-1.8c-4.2-4.1-8.1-6.8-14-7.6
	C255.1,77.9,252.3,79.8,249.1,83.1z M248.9,140.2c-1.7,4.4-3.2,8.7-4.7,13.2c-4.6,14.4-9.8,28.2-16.2,41.8c-0.4,0.9-0.8,1.7-1.2,2.6
	c-10.2,21.6-22.9,41.5-37.9,60.1c-2.7,3.3-5,6.7-7.4,10.2c19.4,19.4,38.8,38.8,58.8,58.8c3.8-1.9,6.8-4.3,10.1-7
	c12.1-9.8,24.7-18.5,38.2-26.2c1.1-0.7,1.1-0.7,2.3-1.3c24.7-14.1,50.8-24.8,78.3-31.9c-5.2-6.3-11-12.1-16.8-17.8
	c-1.1-1.1-2.2-2.2-3.4-3.4c-3-3-6.1-6.1-9.1-9.1c-3.2-3.2-6.3-6.3-9.5-9.5c-5.3-5.3-10.6-10.6-16-15.9c-6.2-6.2-12.3-12.3-18.5-18.5
	c-5.3-5.3-10.6-10.6-15.9-15.9c-3.2-3.2-6.3-6.3-9.5-9.5c-3-3-5.9-5.9-8.9-8.9c-1.1-1.1-2.2-2.2-3.3-3.3c-1.5-1.5-3-3-4.4-4.4
	c-0.8-0.8-1.7-1.7-2.5-2.5C250.2,140.1,250.2,140.1,248.9,140.2z M154.3,295.3c-0.7,0.7-1.3,1.3-2,2c-2.2,2.2-4.5,4.4-6.7,6.7
	c-1.5,1.5-3.1,3.1-4.6,4.6c-3.2,3.2-6.5,6.5-9.7,9.7c-4.1,4.1-8.3,8.3-12.5,12.4c-3.2,3.2-6.4,6.4-9.6,9.5c-1.5,1.5-3.1,3.1-4.6,4.6
	c-2.1,2.1-4.3,4.3-6.4,6.4c-1,0.9-1,0.9-1.9,1.9c-3.8,3.8-7.1,7.4-7.9,12.9c0.4,4.2,1.2,6.8,4.1,9.9c0.6,0.7,1.2,1.3,1.8,2
	c3.5,3.7,7.1,7.4,10.8,11.1c0.8,0.8,1.6,1.7,2.5,2.5c1.7,1.7,3.4,3.5,5.2,5.2c2.6,2.7,5.3,5.3,7.9,8c1.7,1.7,3.4,3.4,5,5.1
	c1.2,1.2,1.2,1.2,2.4,2.4c0.7,0.7,1.5,1.5,2.2,2.2c1,1,1,1,1.9,2c3.3,2.7,6.5,3.9,10.8,3.6c3.6-0.6,5.4-1.5,8.1-4c1-0.9,1-0.9,2-1.8
	c2.9-2.8,5.9-5.6,8.7-8.5c0.6-0.6,1.3-1.3,1.9-1.9c2.1-2.1,4.1-4.1,6.2-6.2c1.4-1.4,2.9-2.9,4.3-4.3c3.8-3.8,7.5-7.5,11.3-11.3
	c3.8-3.8,7.7-7.7,11.5-11.5c7.5-7.5,15-15.1,22.5-22.6c-3.5-4.2-7.2-8.3-11.1-12.2c-0.5-0.5-1-1-1.5-1.5c-1.7-1.7-3.3-3.3-5-5
	c-1.2-1.2-2.3-2.3-3.5-3.5c-2.4-2.4-4.8-4.8-7.3-7.2c-3.1-3.1-6.2-6.2-9.3-9.3c-2.4-2.4-4.8-4.8-7.2-7.2c-1.1-1.1-2.3-2.3-3.4-3.4
	c-1.6-1.6-3.2-3.2-4.8-4.8c-0.7-0.7-0.7-0.7-1.4-1.4C159.9,287.1,158.8,290.8,154.3,295.3z M255,353.5c-0.5,0.5-1,0.9-1.5,1.4
	c-4.2,3.8-8.2,7.8-12.1,11.8c5.5,6.8,11.8,12.8,18,19c9.4-7.3,9.4-7.3,14.4-17.6c0.2-5.7-2.4-9.1-6.1-13.1c-2.1-2.1-4.2-4.2-6.4-6.2
	C259,348.7,256.6,352,255,353.5z M218.7,389.3c-0.7,0.8-1.5,1.5-2.3,2.3c-0.8,0.8-1.6,1.6-2.5,2.5c-0.9,0.9-1.7,1.7-2.6,2.6
	c-1.3,1.3-1.3,1.3-2.6,2.6c-2.1,2.1-4.2,4.3-6.4,6.4c1.2,2.7,2.5,4.7,4.7,6.8c0.6,0.6,1.1,1.1,1.7,1.7c0.6,0.6,1.2,1.2,1.9,1.9
	c0.7,0.7,1.3,1.3,2,2c2.2,2.2,4.3,4.3,6.5,6.5c1.5,1.5,3,3,4.5,4.5c3.1,3.1,6.3,6.3,9.4,9.4c4,4,8.1,8.1,12.1,12.1
	c3.1,3.1,6.2,6.2,9.3,9.3c1.5,1.5,3,3,4.5,4.5c2.1,2.1,4.1,4.1,6.2,6.2c0.6,0.6,1.2,1.2,1.9,1.9c0.6,0.6,1.1,1.1,1.7,1.7
	c0.5,0.5,1,1,1.5,1.5c3.7,3.1,7,3.6,11.7,3.5c3.5-0.5,5.3-1.7,7.8-4.1c2.6-3.6,3.8-6.5,3.8-11c-2-6.6-6.5-11-11.3-15.7c-1-1-1-1-2-2
	c-2.2-2.2-4.3-4.3-6.5-6.5c-1.5-1.5-3-3-4.5-4.5c-3.1-3.1-6.3-6.3-9.4-9.4c-4-4-8.1-8.1-12.1-12.1c-3.1-3.1-6.2-6.2-9.3-9.3
	c-1.5-1.5-3-3-4.5-4.5c-2.1-2.1-4.1-4.1-6.2-6.2c-0.6-0.6-1.2-1.2-1.9-1.9C222.5,387.6,222.5,387.6,218.7,389.3z"/>
<path class="st1" d="M442.3,59.6c3.8,1.9,6.3,4,8.5,7.6c1.6,4.7,1.6,8.6-0.6,13.1c-2.2,4.2-5.1,7.3-8.4,10.6
	c-0.6,0.6-1.2,1.2-1.8,1.8c-1.2,1.2-2.5,2.5-3.7,3.7c-1.9,1.9-3.8,3.8-5.7,5.6c-1.2,1.2-2.4,2.4-3.6,3.6c-0.6,0.6-1.1,1.1-1.7,1.7
	c-4.1,4-8.3,7.6-14,8.7c-5.3-0.1-8.5-0.7-12.6-4.3c-3.3-3.8-3.9-7-4.2-12c1.2-6.6,6.3-11.3,10.9-15.9c0.6-0.6,1.3-1.3,1.9-1.9
	c1.3-1.3,2.7-2.7,4-4c2.1-2,4.1-4.1,6.2-6.1c1.3-1.3,2.6-2.6,3.9-3.9c0.9-0.9,0.9-0.9,1.9-1.9c0.9-0.9,0.9-0.9,1.7-1.7
	c0.5-0.5,1-1,1.5-1.5C431.3,58.8,436.4,58.9,442.3,59.6z"/>
<path class="st1" d="M359.9,32.2c3.5,2.3,6.6,5,8.1,9.1c0.5,3.1,0.5,6.2,0.5,9.4c0,0.7,0,1.4,0,2.1c0,1.5,0,2.9,0,4.4
	c0,2.2,0,4.5,0.1,6.7c0,1.4,0,2.9,0,4.3c0,0.7,0,1.3,0,2c0,5.3-1.1,9.8-4.6,13.9c-4.7,3.6-7.8,4.5-13.7,4c-3.5-1-6.5-2.1-8.6-5.3
	c-2.6-4.8-3.4-8.6-3.3-14.1c0-0.7,0-1.5,0-2.2c0-1.5,0-3.1,0-4.6c0-2.3,0-4.7,0-7c0-1.5,0-3,0-4.5c0-0.7,0-1.4,0-2.1
	c0.1-5.1,1.2-9.1,4.7-12.9C348.6,31.1,353.3,29.8,359.9,32.2z"/>
<path class="st1" d="M170,334.6c4,3.5,5.7,7.6,6.3,12.9c-0.8,6.3-4.2,10.3-8.6,14.6c-0.8,0.8-0.8,0.8-1.6,1.6
	c-1.1,1.1-2.2,2.2-3.3,3.2c-1.7,1.6-3.3,3.3-5,5c-1.1,1.1-2.1,2.1-3.2,3.2c-0.5,0.5-1,1-1.5,1.5c-3.7,3.6-6.2,4.7-11.3,4.8
	c-5.3-0.1-7.8-1.5-11.7-5c-2.5-2.9-2.8-5.6-2.9-9.3c0-0.8-0.1-1.6-0.1-2.4c1.1-7.1,8.1-12.5,13-17.4c1.4-1.4,2.8-2.9,4.2-4.3
	c0.9-0.9,1.8-1.8,2.7-2.7c1.2-1.2,1.2-1.2,2.5-2.5C156.1,332.3,162.3,331.6,170,334.6z"/>
<path class="st1" d="M440.6,142.4c0.8,0,1.6,0,2.5,0c1.7,0,3.5,0,5.2,0c2.6,0,5.3,0,7.9,0c1.7,0,3.4,0,5,0c0.8,0,1.6,0,2.4,0
	c4.4,0.1,7.3,0.5,10.9,3.3c4.2,4.7,5.1,7.5,5,13.7c-0.5,4.4-2.8,7-6,9.8c-4,2.5-8.1,2.3-12.6,2.3c-0.8,0-1.6,0-2.4,0
	c-1.7,0-3.3,0-5,0c-2.5,0-5,0.1-7.6,0.1c-1.6,0-3.2,0-4.8,0c-0.8,0-1.5,0-2.3,0.1c-6.1,0-9.5-2.1-13.9-6.4c-2.5-4-3-7.7-2.2-12.2
	c1.4-4.5,3.2-6.6,7.2-9.3C433.4,142.2,436.8,142.4,440.6,142.4z"/>
</svg>
