<svg width="540" height="540" viewBox="0 0 540 540" fill="none" xmlns="http://www.w3.org/2000/svg">
<path d="M285.734 57.2054C292.599 62.4863 298.544 68.9825 304.654 75.0933C306.251 76.6799 307.848 78.2658 309.446 79.8512C313.766 84.1422 318.076 88.4423 322.385 92.7451C325.08 95.4373 327.779 98.1272 330.477 100.817C337.967 108.281 345.454 115.747 352.932 123.222C353.648 123.938 353.648 123.938 354.378 124.668C355.345 125.634 356.312 126.601 357.279 127.568C357.759 128.048 358.239 128.528 358.734 129.022C359.214 129.503 359.695 129.983 360.19 130.478C367.976 138.261 375.778 146.029 383.588 153.789C391.628 161.779 399.655 169.782 407.671 177.798C412.162 182.289 416.659 186.775 421.168 191.247C425.411 195.456 429.637 199.68 433.852 203.916C435.395 205.462 436.944 207.003 438.498 208.537C450.084 219.975 460.213 231.377 460.334 248.566C459.88 259.562 457.182 268.379 449.883 276.686C449.408 277.26 448.932 277.834 448.442 278.426C441.48 286.185 431.31 290.39 421.06 291.143C412.403 291.425 404.524 290.433 396.887 286.09C383.819 280.369 355.865 294.566 343.642 299.283C322.83 307.532 303.261 317.894 284.922 330.724C285.809 331.767 286.696 332.809 287.585 333.85C288.079 334.43 288.573 335.01 289.083 335.608C290.522 337.259 292.006 338.853 293.514 340.442C301.71 349.954 302.643 361.199 302.149 373.176C301.105 386.788 291.565 396.726 282.078 405.621C283.319 408.372 284.633 410.294 286.797 412.391C287.367 412.948 287.937 413.506 288.524 414.08C289.139 414.674 289.754 415.267 290.388 415.879C291.696 417.162 293.003 418.446 294.31 419.73C296.364 421.737 298.42 423.741 300.482 425.739C312.593 437.498 321.703 447.551 322.311 465.229C322 477.562 317.598 487.499 309.216 496.397C300.106 505.027 289.756 508.01 277.338 508.01C263.053 506.804 253.364 499.528 243.578 489.635C242.902 488.959 242.226 488.283 241.529 487.587C239.319 485.375 237.116 483.157 234.912 480.939C233.372 479.395 231.831 477.851 230.29 476.308C226.252 472.263 222.22 468.213 218.189 464.161C214.068 460.02 209.941 455.885 205.815 451.749C197.733 443.647 189.657 435.538 181.584 427.426C180.515 428.331 179.448 429.238 178.381 430.146C177.787 430.651 177.192 431.156 176.58 431.676C174.756 433.283 173.172 435.022 171.571 436.847C164.531 444.039 154.465 448.318 144.475 448.56C132.597 448.661 123.437 446.735 114.273 438.802C113.37 438.024 113.37 438.024 112.448 437.229C104.602 430.301 97.2158 422.903 89.8077 415.513C87.489 413.204 85.1604 410.905 82.8315 408.605C81.3372 407.117 79.8435 405.629 78.3505 404.139C77.3193 403.126 77.3193 403.126 76.2673 402.092C65.6716 391.45 59.9778 380.418 60.0001 365.391C60.2201 351.211 67.0651 341.291 76.9652 331.591C78.1711 330.386 78.1711 330.386 79.4013 329.157C81.5845 326.98 83.7759 324.812 85.9712 322.647C88.2806 320.365 90.5786 318.072 92.8779 315.78C97.2306 311.443 101.593 307.117 105.958 302.793C112.352 296.461 118.735 290.117 125.114 283.77C125.585 283.302 126.055 282.834 126.54 282.352C127.479 281.418 128.418 280.484 129.357 279.55C132.523 276.4 135.695 273.255 138.869 270.113C140.537 268.457 142.205 266.801 143.873 265.146C144.621 264.408 145.368 263.67 146.138 262.909C183.116 226.151 218.962 169.085 223.562 116.291C223.249 113.117 222.308 110.771 220.988 107.873C216.236 97.3535 216.386 86.7151 220.155 75.8282C225.314 63.5348 233.423 56.2428 245.537 50.9641C259.124 46.1012 274.207 49.0192 285.734 57.2054ZM249.074 83.1052C246.847 86.3503 246.052 87.9041 246.052 91.8155C247.887 98.1659 250.605 101.79 255.276 106.375C255.928 107.034 256.58 107.693 257.252 108.372C259.431 110.567 261.626 112.745 263.821 114.924C265.391 116.498 266.959 118.073 268.526 119.649C272.779 123.92 277.048 128.176 281.319 132.428C285.335 136.431 289.342 140.443 293.349 144.455C301.289 152.403 309.241 160.339 317.2 168.269C324.917 175.959 332.623 183.659 340.319 191.369C348.706 199.772 357.1 208.17 365.503 216.557C369.949 220.994 374.393 225.434 378.83 229.879C383.001 234.058 387.182 238.228 391.371 242.39C392.906 243.919 394.438 245.451 395.967 246.987C398.054 249.082 400.153 251.166 402.255 253.247C403.159 254.162 403.159 254.162 404.08 255.095C408.125 259.066 412.033 262.046 417.86 262.702C422.906 262.016 425.456 260.431 429.026 256.776C431.45 252.706 431.702 249.074 430.922 244.452C427.804 238.981 423.09 234.447 418.656 230.036C417.697 229.071 417.697 229.071 416.719 228.087C414.595 225.95 412.465 223.821 410.334 221.692C408.802 220.155 407.271 218.617 405.74 217.079C401.594 212.916 397.442 208.76 393.288 204.605C390.692 202.007 388.098 199.409 385.504 196.81C376.919 188.209 368.33 179.611 359.737 171.019C359.043 170.325 359.043 170.325 358.336 169.618C357.873 169.155 357.41 168.692 356.933 168.216C349.423 160.707 341.923 153.188 334.427 145.665C326.719 137.93 319.005 130.203 311.283 122.482C306.952 118.152 302.624 113.818 298.303 109.478C294.242 105.399 290.173 101.329 286.096 97.266C284.602 95.7738 283.111 94.2784 281.623 92.7795C279.592 90.7336 277.55 88.6998 275.504 86.6685C274.918 86.0733 274.333 85.4781 273.73 84.8648C269.563 80.7639 265.672 78.1073 259.739 77.2392C255.138 77.947 252.338 79.8415 249.074 83.1052ZM248.896 140.166C247.21 144.516 245.665 148.881 244.241 153.324C239.636 167.676 234.44 181.506 228.039 195.153C227.631 196.026 227.223 196.9 226.803 197.8C216.603 219.412 203.879 239.305 188.935 257.922C186.272 261.25 183.964 264.583 181.584 268.153C200.982 287.55 220.379 306.947 240.364 326.932C244.21 325.009 247.212 322.653 250.496 319.94C262.556 310.157 275.211 301.416 288.714 293.75C289.852 293.098 289.852 293.098 291.013 292.433C315.672 278.361 341.792 267.632 369.299 260.569C364.099 254.242 358.326 248.514 352.536 242.736C351.416 241.614 350.296 240.492 349.176 239.37C346.15 236.34 343.121 233.313 340.092 230.287C336.92 227.117 333.751 223.946 330.581 220.774C325.265 215.456 319.947 210.14 314.627 204.825C308.47 198.673 302.316 192.518 296.164 186.361C290.881 181.073 285.596 175.787 280.309 170.503C277.151 167.347 273.995 164.191 270.84 161.032C267.879 158.069 264.917 155.109 261.952 152.15C260.862 151.06 259.772 149.97 258.683 148.879C257.204 147.398 255.722 145.919 254.239 144.44C253.408 143.61 252.578 142.78 251.722 141.924C250.158 140.058 250.158 140.058 248.896 140.166ZM154.312 295.273C153.641 295.939 152.971 296.605 152.28 297.291C150.049 299.508 147.822 301.728 145.596 303.949C144.052 305.487 142.509 307.025 140.965 308.564C137.723 311.796 134.482 315.031 131.243 318.266C127.094 322.411 122.935 326.547 118.775 330.68C115.58 333.857 112.392 337.04 109.205 340.225C107.675 341.752 106.143 343.277 104.608 344.8C102.459 346.933 100.319 349.075 98.1804 351.219C97.2273 352.159 97.2273 352.159 96.2549 353.118C92.4964 356.911 89.1468 360.56 88.3717 366.062C88.759 370.229 89.6101 372.835 92.4597 375.944C93.0594 376.601 93.6592 377.257 94.2771 377.933C97.8183 381.666 101.408 385.345 105.037 388.993C105.858 389.819 106.679 390.646 107.525 391.497C109.249 393.23 110.975 394.963 112.702 396.693C115.345 399.345 117.977 402.007 120.609 404.669C122.291 406.357 123.974 408.044 125.657 409.731C126.833 410.925 126.833 410.925 128.033 412.143C128.771 412.878 129.508 413.612 130.268 414.369C131.233 415.339 131.233 415.339 132.217 416.329C135.507 419.035 138.766 420.219 143.011 419.901C146.574 419.35 148.456 418.363 151.101 415.929C152.084 415.029 152.084 415.029 153.088 414.111C156.038 411.307 158.949 408.472 161.818 405.586C162.448 404.956 163.078 404.326 163.727 403.677C165.781 401.623 167.831 399.565 169.882 397.507C171.316 396.07 172.751 394.635 174.186 393.199C177.941 389.44 181.693 385.679 185.444 381.917C189.281 378.07 193.121 374.226 196.961 370.382C204.479 362.853 211.994 355.322 219.507 347.789C215.96 343.559 212.312 339.508 208.401 335.613C207.893 335.104 207.385 334.594 206.862 334.069C205.207 332.41 203.548 330.754 201.89 329.099C200.731 327.939 199.572 326.78 198.414 325.62C195.999 323.203 193.582 320.788 191.163 318.375C188.057 315.274 184.955 312.169 181.854 309.062C179.469 306.673 177.082 304.287 174.693 301.901C173.548 300.756 172.403 299.61 171.258 298.464C169.668 296.871 168.074 295.281 166.479 293.691C165.766 292.976 165.766 292.976 165.039 292.246C159.878 287.116 158.834 290.759 154.312 295.273ZM254.999 353.478C254.489 353.948 253.978 354.418 253.452 354.903C249.299 358.748 245.261 362.696 241.312 366.75C246.835 373.537 253.104 379.574 259.325 385.711C268.773 378.454 268.773 378.454 273.723 368.113C273.89 362.374 271.356 359.013 267.631 354.963C265.541 352.826 263.449 350.73 261.221 348.737C259.012 348.737 256.62 351.977 254.999 353.478ZM218.693 389.261C217.944 390.016 217.194 390.77 216.422 391.548C215.612 392.361 214.802 393.173 213.968 394.011C213.117 394.87 212.266 395.729 211.389 396.614C210.107 397.903 210.107 397.903 208.798 399.218C206.677 401.35 204.559 403.484 202.442 405.621C203.677 408.341 204.988 410.3 207.096 412.411C207.659 412.98 208.223 413.549 208.803 414.135C209.42 414.748 210.036 415.361 210.672 415.992C211.322 416.646 211.973 417.3 212.644 417.974C214.796 420.135 216.955 422.288 219.114 424.441C220.612 425.94 222.109 427.439 223.606 428.938C226.745 432.08 229.887 435.218 233.031 438.353C237.063 442.374 241.086 446.404 245.107 450.436C248.197 453.533 251.292 456.626 254.389 459.717C255.874 461.202 257.358 462.687 258.841 464.174C260.912 466.251 262.99 468.321 265.07 470.39C265.683 471.007 266.296 471.624 266.927 472.259C267.496 472.822 268.065 473.386 268.651 473.967C269.141 474.456 269.632 474.946 270.137 475.45C273.835 478.566 277.139 479.048 281.845 478.909C285.32 478.438 287.113 477.2 289.662 474.828C292.269 471.187 293.455 468.314 293.455 463.807C291.492 457.182 286.911 452.844 282.12 448.094C281.136 447.108 281.136 447.108 280.133 446.103C277.978 443.943 275.815 441.791 273.653 439.639C272.151 438.139 270.65 436.638 269.148 435.136C266.009 431.998 262.867 428.864 259.722 425.731C255.681 421.707 251.646 417.675 247.613 413.642C244.517 410.546 241.419 407.453 238.32 404.361C236.83 402.874 235.341 401.387 233.853 399.9C231.781 397.829 229.705 395.762 227.629 393.696C227.009 393.076 226.389 392.455 225.75 391.816C222.486 387.567 222.486 387.567 218.693 389.261Z" fill="white"/>
<path d="M442.298 59.582C446.095 61.4804 448.611 63.5449 450.831 67.1665C452.391 71.8469 452.414 75.8016 450.249 80.2512C448.055 84.4511 445.198 87.5546 441.836 90.8529C441.246 91.4435 440.657 92.034 440.05 92.6424C438.811 93.8801 437.567 95.1132 436.319 96.3417C434.421 98.2117 432.542 100.099 430.664 101.989C429.451 103.196 428.237 104.402 427.022 105.607C426.467 106.165 425.912 106.723 425.34 107.298C421.281 111.266 417.05 114.879 411.335 116.021C406.027 115.952 402.834 115.365 398.688 111.725C395.368 107.947 394.786 104.694 394.492 99.7113C395.702 93.0956 400.762 88.3839 405.354 83.8573C405.992 83.2189 406.63 82.5805 407.287 81.9227C408.629 80.5832 409.974 79.2473 411.322 77.9147C413.385 75.8747 415.434 73.8222 417.482 71.7678C418.791 70.4641 420.101 69.1612 421.412 67.859C422.329 66.9406 422.329 66.9406 423.264 66.0037C424.128 65.1534 424.128 65.1534 425.009 64.286C425.512 63.7881 426.014 63.2902 426.531 62.7772C431.259 58.8051 436.376 58.8782 442.298 59.582Z" fill="white"/>
<path d="M359.937 32.2072C363.479 34.5174 366.503 37.1972 367.994 41.3014C368.507 44.4129 368.524 47.5085 368.543 50.6535C368.548 51.3478 368.554 52.0422 368.559 52.7576C368.568 54.2246 368.575 55.6916 368.578 57.1586C368.587 59.387 368.617 61.6146 368.647 63.8429C368.653 65.273 368.658 66.7031 368.662 68.1332C368.673 68.7921 368.685 69.451 368.697 70.1299C368.673 75.3974 367.585 79.9209 364.084 83.9871C359.378 87.5415 356.238 88.5074 350.338 88.0237C346.789 86.9844 343.834 85.9063 341.765 82.7006C339.195 77.8771 338.407 74.0696 338.491 68.6405C338.489 67.9072 338.488 67.1739 338.486 66.4183C338.488 64.8807 338.499 63.3431 338.519 61.8056C338.546 59.4627 338.538 57.1219 338.526 54.779C338.532 53.2766 338.54 51.7743 338.55 50.272C338.547 49.5786 338.544 48.8852 338.541 48.1708C338.635 43.0502 339.734 39.0995 343.227 35.2698C348.645 31.0515 353.291 29.8146 359.937 32.2072Z" fill="white"/>
<path d="M170.03 334.577C174 338.093 175.682 342.226 176.311 347.435C175.493 353.748 172.102 357.696 167.69 362.03C166.917 362.804 166.917 362.804 166.128 363.593C165.045 364.674 163.958 365.752 162.867 366.826C161.198 368.473 159.542 370.132 157.887 371.794C156.83 372.846 155.772 373.897 154.713 374.947C154.218 375.443 153.723 375.938 153.214 376.449C149.512 380.078 147.007 381.116 141.885 381.209C136.588 381.148 134.077 379.72 130.153 376.232C127.606 373.322 127.358 370.667 127.249 366.929C127.214 366.141 127.178 365.353 127.142 364.541C128.283 357.392 135.252 352.056 140.17 347.139C141.585 345.72 142.984 344.287 144.383 342.852C145.293 341.936 146.205 341.021 147.118 340.106C148.34 338.872 148.34 338.872 149.587 337.613C156.084 332.264 162.272 331.646 170.03 334.577Z" fill="white"/>
<path d="M440.647 142.448C441.468 142.448 442.289 142.448 443.135 142.448C444.861 142.453 446.587 142.47 448.313 142.497C450.949 142.537 453.583 142.536 456.22 142.53C457.902 142.54 459.585 142.552 461.267 142.567C462.052 142.567 462.836 142.567 463.644 142.567C468.052 142.658 470.939 143.036 474.533 145.855C478.696 150.597 479.606 153.352 479.543 159.561C479.049 163.965 476.752 166.543 473.525 169.379C469.492 171.851 465.46 171.636 460.886 171.679C460.104 171.686 459.322 171.694 458.516 171.702C456.861 171.715 455.206 171.725 453.55 171.733C451.028 171.749 448.507 171.79 445.986 171.832C444.375 171.842 442.765 171.85 441.155 171.856C440.405 171.873 439.655 171.89 438.883 171.907C432.739 171.883 429.367 169.837 424.938 165.527C422.484 161.528 421.945 157.872 422.742 153.329C424.094 148.878 425.989 146.761 429.896 144.039C433.383 142.223 436.788 142.371 440.647 142.448Z" fill="white"/>
</svg>
