<svg width="942" height="523" viewBox="0 0 942 523" fill="none" xmlns="http://www.w3.org/2000/svg">
<path fill-rule="evenodd" clip-rule="evenodd" d="M520.378 151.705C532.185 138.021 540.143 118.963 537.965 100C520.952 100.648 500.368 110.869 488.168 124.536C477.213 136.665 467.65 156.046 470.221 174.636C489.2 176.045 508.572 165.405 520.378 151.705ZM562.938 272.061C563.413 321.079 607.806 337.385 608.297 337.596C607.937 338.745 601.207 360.83 584.913 383.663C570.814 403.387 556.191 423.031 533.151 423.452C510.52 423.857 503.233 410.595 477.344 410.595C451.471 410.595 443.382 423.029 421.963 423.855C399.725 424.649 382.777 402.516 368.58 382.856C339.53 342.647 317.342 269.228 347.144 219.676C361.948 195.077 388.394 179.477 417.116 179.088C438.944 178.683 459.561 193.163 472.907 193.163C486.252 193.163 511.306 175.754 537.638 178.313C548.658 178.75 579.608 182.571 599.471 210.44C597.866 211.395 562.545 231.091 562.938 272.061Z" fill="white"/>
</svg>
