<svg width="942" height="523" viewBox="0 0 942 523" fill="none" xmlns="http://www.w3.org/2000/svg">
<path d="M366.008 396.457H341.459V299.174H366.008V396.457Z" fill="white"/>
<mask id="mask0_218_1502" style="mask-type:luminance" maskUnits="userSpaceOnUse" x="171" y="91" width="600" height="342">
<path d="M171 432.83H771V90.9999H171V432.83Z" fill="white"/>
</mask>
<g mask="url(#mask0_218_1502)">
<path d="M563.947 327.049C562.937 326.536 555.036 321.855 543.295 321.855C527.425 321.855 516.414 332.896 516.414 347.802C516.414 362.257 526.95 373.773 543.295 373.773C554.834 373.773 562.867 369.186 563.947 368.61V394.721C560.868 395.576 552.478 398.181 541.577 398.181C513.965 398.181 489.728 379.146 489.728 347.795C489.728 318.752 511.656 297.446 541.577 297.446C553.085 297.446 561.623 300.246 563.947 300.938V327.049ZM307.713 327.049C306.726 326.536 298.833 321.855 287.092 321.855C271.191 321.855 260.188 332.896 260.188 347.802C260.188 362.257 270.732 373.773 287.092 373.773C298.631 373.773 306.656 369.186 307.713 368.61V394.721C304.665 395.576 296.283 398.181 285.319 398.181C257.731 398.181 233.525 379.146 233.525 347.795C233.525 318.752 255.452 297.446 285.327 297.446C296.882 297.446 305.404 300.246 307.713 300.938V327.049ZM641.168 322.22C626.604 322.22 615.788 333.682 615.788 347.802C615.788 361.954 626.604 373.408 641.168 373.408C655.717 373.408 666.564 361.954 666.564 347.802C666.564 333.682 655.717 322.22 641.168 322.22ZM692.574 347.802C692.574 375.632 671.089 398.181 641.176 398.181C611.247 398.181 589.794 375.632 589.794 347.795C589.794 320.02 611.255 297.446 641.168 297.446C671.089 297.446 692.574 320.02 692.574 347.802ZM459.099 321.287C458.734 321.171 448.4 318.317 439.909 318.317C430.072 318.317 424.723 321.614 424.723 326.287C424.723 332.212 431.939 334.28 435.974 335.555L442.747 337.71C458.687 342.779 465.942 353.689 465.942 365.539C465.942 389.978 444.45 398.189 425.664 398.189C412.608 398.189 400.377 395.779 399.172 395.53V373.136C401.333 373.68 411.628 376.759 422.351 376.759C434.567 376.759 440.181 373.183 440.181 367.677C440.181 362.747 435.321 359.901 429.233 357.988C427.755 357.491 425.516 356.791 423.992 356.293C410.322 351.97 398.923 343.93 398.923 327.834C398.923 309.639 412.546 297.423 435.173 297.423C447.125 297.423 458.368 300.324 459.099 300.518V321.279V321.287Z" fill="white"/>
<path d="M207.491 194.628C207.491 187.925 202.017 182.489 195.307 182.489C188.596 182.489 183.115 187.925 183.115 194.62V220.163C183.195 223.342 184.514 226.365 186.791 228.585C189.068 230.805 192.123 232.047 195.303 232.047C198.483 232.047 201.538 230.805 203.815 228.585C206.092 226.365 207.411 223.342 207.491 220.163V194.628ZM274.433 161.114C274.433 157.882 273.149 154.781 270.863 152.496C268.577 150.21 265.477 148.926 262.244 148.926C259.012 148.926 255.912 150.21 253.626 152.496C251.34 154.781 250.056 157.882 250.056 161.114V220.163C250.056 223.396 251.34 226.496 253.626 228.782C255.912 231.068 259.012 232.352 262.244 232.352C265.477 232.352 268.577 231.068 270.863 228.782C273.149 226.496 274.433 223.396 274.433 220.163V161.106V161.114ZM341.382 115.253C341.382 108.55 335.908 103.107 329.198 103.107C322.479 103.107 317.005 108.55 317.005 115.253V244.431C317.085 247.61 318.405 250.632 320.682 252.853C322.959 255.073 326.013 256.316 329.194 256.316C332.374 256.316 335.428 255.073 337.705 252.853C339.982 250.632 341.302 247.61 341.382 244.431V115.253ZM408.324 161.114C408.324 157.882 407.039 154.781 404.754 152.496C402.468 150.21 399.368 148.926 396.135 148.926C392.902 148.926 389.802 150.21 387.516 152.496C385.231 154.781 383.947 157.882 383.947 161.114V220.163C383.947 223.396 385.231 226.496 387.516 228.782C389.802 231.068 392.902 232.352 396.135 232.352C399.368 232.352 402.468 231.068 404.754 228.782C407.039 226.496 408.324 223.396 408.324 220.163V161.106V161.114ZM475.195 194.628C475.197 191.412 473.922 188.327 471.65 186.051C469.379 183.775 466.296 182.494 463.08 182.489C459.858 182.487 456.765 183.763 454.482 186.037C452.198 188.311 450.908 191.397 450.896 194.62V220.163C450.896 223.385 452.176 226.476 454.454 228.754C456.733 231.033 459.823 232.313 463.045 232.313C466.268 232.313 469.358 231.033 471.636 228.754C473.915 226.476 475.195 223.385 475.195 220.163V194.628ZM542.168 161.114C542.087 157.945 540.772 154.933 538.502 152.72C536.233 150.506 533.188 149.268 530.018 149.268C526.848 149.268 523.803 150.506 521.533 152.72C519.264 154.933 517.949 157.945 517.868 161.114V220.163C517.868 223.385 519.148 226.476 521.427 228.754C523.705 231.033 526.796 232.313 530.018 232.313C533.24 232.313 536.33 231.033 538.609 228.754C540.887 226.476 542.168 223.385 542.168 220.163V161.106V161.114ZM609.156 115.253C609.156 112.03 607.876 108.94 605.597 106.662C603.319 104.383 600.228 103.103 597.006 103.103C593.784 103.103 590.693 104.383 588.415 106.662C586.136 108.94 584.856 112.03 584.856 115.253V244.431C584.784 246.071 585.045 247.709 585.624 249.246C586.202 250.783 587.085 252.186 588.22 253.372C589.356 254.559 590.719 255.502 592.229 256.147C593.739 256.792 595.364 257.125 597.006 257.125C598.648 257.125 600.273 256.792 601.783 256.147C603.293 255.502 604.656 254.559 605.792 253.372C606.927 252.186 607.81 250.783 608.388 249.246C608.966 247.709 609.227 246.071 609.156 244.431V115.253ZM676.128 161.114C676.128 154.404 670.693 148.953 663.827 148.953C660.605 148.955 657.516 150.236 655.238 152.515C652.961 154.794 651.681 157.884 651.681 161.106V220.163C651.681 226.905 657.124 232.34 663.827 232.34C670.693 232.34 676.128 226.905 676.128 220.163V161.106V161.114ZM742.976 194.628C742.976 191.402 741.695 188.309 739.414 186.028C737.134 183.747 734.04 182.466 730.815 182.466C727.59 182.466 724.496 183.747 722.216 186.028C719.935 188.309 718.654 191.402 718.654 194.628V220.163C718.654 226.905 724.104 232.347 730.815 232.347C737.518 232.347 742.968 226.905 742.968 220.163V194.628H742.976Z" fill="white"/>
<path d="M728.926 383.64V385.164H724.587V396.447H722.798V385.172H718.444V383.64H728.926ZM729.835 383.64H732.627L736.46 394.145H736.523L740.232 383.648H742.969V396.447H741.141V385.95H741.079L737.191 396.447H735.504L731.709 385.95H731.624V396.447H729.835V383.64Z" fill="white"/>
</g>
</svg>
