<?xml version="1.0" encoding="utf-8"?>
<!-- Generator: Adobe Illustrator 27.1.1, SVG Export Plug-In . SVG Version: 6.00 Build 0)  -->
<svg version="1.1" id="Layer_1" xmlns="http://www.w3.org/2000/svg" xmlns:xlink="http://www.w3.org/1999/xlink" x="0px" y="0px"
	 viewBox="0 0 540 540" style="enable-background:new 0 0 540 540;" xml:space="preserve">
<style type="text/css">
	.st0{fill:url(#SVGID_1_);}
	.st1{fill:url(#SVGID_00000176045393252364706150000003677254742342412724_);}
</style>
<linearGradient id="SVGID_1_" gradientUnits="userSpaceOnUse" x1="68.5345" y1="356.6214" x2="381.5345" y2="40.6214">
	<stop  offset="0" style="stop-color:#F42267"/>
	<stop  offset="1" style="stop-color:#4A2D7F"/>
</linearGradient>
<path class="st0" d="M215.8,47c0.6,0,1.3,0,1.9,0c2.1,0,4.1,0,6.2,0c0.7,0,1.4,0,2.1,0c11.8,0,23.4,0.6,35.2,2.2
	c1,0.1,2.1,0.3,3.1,0.4c8.6,1.1,17,3,25.4,5.2c1.7,0.4,3.3,0.8,5,1.2c3.2,0.8,6.2,1.8,9.3,2.9c1.1,0.4,2.2,0.8,3.2,1.2
	c0.5,0.2,1,0.4,1.6,0.6c1.6,0.6,3.3,1.1,4.9,1.6c3,1,5.8,2.1,8.7,3.6c1.2,0.6,2.4,1.1,3.7,1.6c3.5,1.4,6.8,3.1,10.1,4.8
	c0.3,0.2,0.6,0.3,1,0.5c14.3,7.5,27.1,16.6,39.3,27.1c0.4,0.3,0.8,0.7,1.2,1c10.1,8.5,18.5,19.4,25.5,30.6c0.7,1.1,1.4,2.1,2.1,3.1
	c0.8,1.4,0.8,1.4,0.8,3.5c0.4,0,0.7,0,1.1,0c2.3,4.4,4.3,8.6,5.9,13.3c0.5,1.5,1.1,3,1.7,4.5c0.3,0.9,0.7,1.7,1,2.6
	c0.3,0.7,0.3,0.7,0.5,1.3c1.9,5.1,2.7,10.5,3.5,15.9c0.2,1.1,0.4,2.1,0.6,3.2c0.9,5,1,9.9,1,14.9c0,0.4,0,0.9,0,1.3
	c0,6.5-0.4,13-1.1,19.5c0,0.4-0.1,0.7-0.1,1.1c-1,8.8-3.5,17.1-6.3,25.5c-0.1,0.4-0.3,0.8-0.4,1.3c-2.1,6.2-4.4,12.1-7.8,17.7
	c-0.6,1-1.2,2-1.7,3.1c-4.6,8.4-10.1,16.1-16.6,23.1c-1,1-1.9,2.1-2.8,3.2c-4.9,5.6-10.2,10.8-16.1,15.2c-0.3,0.2-0.6,0.5-0.9,0.7
	c-10,7.8-20.7,14.5-31.9,20.3c-0.5,0.2-0.9,0.5-1.4,0.7c-2.8,1.4-5.5,2.6-8.4,3.7c-0.7,0.3-1.4,0.5-2.1,0.8
	c-0.5,0.2-0.5,0.2-0.9,0.3c-1.3,0.5-2.6,1.1-3.9,1.6c-7,3-14,5.3-21.4,7.2c-1.6,0.4-3.2,0.8-4.8,1.2c-8.3,2.2-16.5,4-25.1,5
	c-0.8,0.1-1.6,0.2-2.4,0.3c-1.5,0.2-3.1,0.4-4.6,0.5c-1.7,0.2-3.4,0.4-5.1,0.6c-7.5,0.9-15,1.3-22.5,1.3c-0.7,0-1.4,0-2.1,0
	c-1.5,0-3,0-4.5,0c-1.5,0-3,0-4.5,0c-8.7,0-17.2,0-25.8-1.7c-0.2,0.5-0.2,0.5-0.4,1c-0.8,1.3-1.4,1.7-2.8,2.2c0,0.4,0,0.7,0,1.1
	c-1.3,1.4-2.8,2.6-4.3,3.8c-0.3,0.2-0.6,0.5-0.9,0.7c-5.6,4.7-11.4,9-17.4,13.2c-0.3,0.2-0.7,0.5-1,0.7c-2,1.4-4,2.8-6,4.1
	c-0.5,0.3-0.9,0.6-1.4,1c-3.9,2.6-7.8,5.1-11.8,7.6c-0.3,0.2-0.6,0.4-0.9,0.6c-8,4.9-16.3,9.5-24.8,13.6c-0.9,0.4-1.8,0.9-2.7,1.3
	c-7.5,3.6-15.5,6.2-23.6,8.3c-0.4,0.1-0.9,0.2-1.3,0.4c-4.1,1.1-9,1.6-13-0.1c-2.1-1.3-3.4-3-4.6-5.1c-0.2-0.3-0.4-0.7-0.6-1
	c-1.2-2.7-0.9-5.7,0-8.5c0.8-1.7,1.8-3.4,2.7-5c1-1.7,2-3.5,3-5.2c0.3-0.5,0.5-0.9,0.8-1.4c2.3-3.9,4.3-7.9,6.4-12
	c0.3-0.6,0.6-1.1,0.9-1.7c2.6-5.2,4.9-10.6,6.8-16.1c0.1-0.4,0.3-0.8,0.4-1.2c0.4-1.1,0.8-2.2,1.1-3.3c0.2-0.5,0.3-1,0.5-1.5
	c0.4-1.1,0.7-2.2,1.1-3.3c0.2-0.5,0.4-1.1,0.5-1.6c0.8-2.7,0.9-5.5,1.1-8.3c0.1-0.8,0.1-0.8,0.1-1.7c0.1-1.3,0.2-2.7,0.3-4
	c-0.5-0.1-1-0.3-1.5-0.4c-1.6-0.6-2.9-1.2-4.3-2.1c-0.5-0.3-0.9-0.6-1.4-0.9c-0.5-0.3-1-0.6-1.4-0.9c-0.7-0.4-0.7-0.4-1.4-0.8
	c-11.7-7.2-22.6-16.6-31.5-27.2c-0.4-0.4-0.7-0.8-1.1-1.3c-2.5-3-4.9-6.2-7.2-9.4c-0.3-0.4-0.5-0.8-0.8-1.2
	c-4.4-6.3-4.4-6.3-4.4-8.1c-0.4,0-0.7,0-1.1,0c-0.3-0.5-0.5-1.1-0.8-1.7c-0.2-0.4-0.4-0.7-0.5-1.1c-0.4-0.8-0.8-1.6-1.2-2.4
	c-0.9-1.7-1.7-3.4-2.6-5.1c-3.6-7.1-7-14.4-8.9-22.2c-0.4-1.5-0.8-3-1.3-4.5c-2-6.2-3.2-12.2-3.9-18.6c-0.2-1.5-0.4-3.1-0.6-4.6
	c-2-13.5-3.2-30.2,1.5-43.2c0.1-0.9,0.3-1.7,0.3-2.6c0-0.4,0.1-0.8,0.1-1.3c0-0.3,0.1-0.6,0.1-0.9c0.4,0,0.7,0,1.1,0
	c0-0.5,0-1.1-0.1-1.7c0.1-2.2,0.5-3.8,1.3-5.8c0.2-0.7,0.5-1.3,0.7-2c0.7-1.9,1.5-3.7,2.4-5.6c0.5-1.1,0.9-2.3,1.4-3.5
	c2.6-6.6,6.2-12.9,10.4-18.6c0.6-0.9,1.2-1.7,1.8-2.6c5.3-7.7,11.5-14.5,18.2-21.1c0.5-0.5,1-1,1.5-1.5c3.4-3.5,7-6.8,10.9-9.8
	c0.4-0.3,0.7-0.6,1.1-0.8c5.9-4.5,12-8.7,18.3-12.6c0.4-0.3,0.8-0.5,1.2-0.8c8.7-5.5,17.7-10,27.3-13.7c0.6-0.3,1.3-0.5,2-0.8
	c4.4-1.8,8.8-3.4,13.3-4.8c1.7-0.5,3.3-1.1,5-1.7c16.9-6.1,35.2-9.1,53.1-10.3c1.4-0.1,2.8-0.2,4.3-0.4
	C209.1,47.1,212.4,47.1,215.8,47z M167.1,84.3c-1.4,0.4-2.7,0.7-4.2,1c-3.6,0.7-7,2-10.4,3.2c-0.6,0.2-1.3,0.5-1.9,0.7
	c-8.5,3-8.5,3-16.6,6.8c-1.3,0.6-2.6,1.2-4,1.7c-2.7,1.1-5.3,2.4-7.9,3.8c-0.5,0.3-0.9,0.5-1.4,0.8c-9.6,5.4-18.7,11.7-26.8,19.2
	c-1.1,1-2.3,2-3.4,3c-8.2,7.2-14.7,15.8-20.4,25c-0.3,0.5-0.6,1-0.9,1.5c-0.3,0.4-0.6,0.9-0.8,1.3c-0.2,0.4-0.5,0.7-0.7,1.1
	c-1.1,2.2-2,4.5-2.9,6.8c-0.4,0.9-0.7,1.8-1.1,2.7c-2.3,5.7-4,11.1-4.8,17.2c-0.1,0.7-0.2,1.3-0.3,2c-1.6,10.5-0.9,20.9,0.9,31.4
	c0.1,0.5,0.2,1.1,0.3,1.6c0.3,1.7,0.5,3.3,0.8,5c0.1,0.5,0.2,1,0.3,1.5c0.6,3.3,1.4,6.5,2.4,9.7c0.1,0.5,0.3,1,0.4,1.5
	c2.3,7.7,5.2,14.7,9.2,21.7c0.3,0.5,0.3,0.5,0.6,1.1c9.2,16.1,21.7,30,37.5,39.8c1.1,0.7,2.2,1.4,3.3,2.2c1.4,0.9,2.8,1.6,4.4,2.2
	c2.1,0.9,4.1,2,6.1,3.1c3.1,1.7,6.3,3.3,9.5,4.9c0,0.8-0.1,1.5-0.1,2.3c0,0.8,0,0.8-0.1,1.5c0,1.1-0.1,2.2-0.1,3.3
	c-0.1,2.8-0.2,5.5-0.3,8.3c-0.3,9.4-2.4,17.5-5.3,26.4c-1.2,3.7-2.3,7.5-3.3,11.2c-0.3,1.1-0.7,2.3-1,3.4c1.8-0.7,3.4-1.4,4.9-2.5
	c0.4-0.3,0.8-0.6,1.3-0.9c0.4-0.3,0.9-0.6,1.3-0.9c0.5-0.3,0.9-0.6,1.4-1c3.8-2.6,7.4-5.4,11-8.2c0.6-0.5,1.2-0.9,1.8-1.4
	c4.4-3.4,8.7-7,12.9-10.8c0.8-0.7,1.6-1.3,2.3-2c0.4-0.3,0.8-0.7,1.2-1c0.3-0.3,0.7-0.5,1-0.8c0.8-0.7,0.8-0.7,0.7-1.8
	c0.3-0.1,0.6-0.2,0.9-0.4c1.7-0.9,3.1-2.2,4.5-3.4c0.6-0.5,1.2-1.1,1.9-1.6c0.3-0.3,0.6-0.5,0.9-0.8c1.8-1.5,3.7-3,5.5-4.5
	c1.3-1.1,1.3-1.1,2.3-2.3c1.7-1.9,3-2.7,5.5-2.9c5.3-0.2,10.6,0.4,15.9,1c0.4,0,0.9,0.1,1.3,0.2c1.2,0.1,2.4,0.3,3.7,0.5
	c6.6,0.8,13.1,1,19.7,0.9c0.5,0,1.1,0,1.6,0c12.7,0,25-0.8,37.6-3.1c1.9-0.3,3.8-0.6,5.7-0.8c5.1-0.7,10-1.9,15-3.3
	c1.3-0.4,2.7-0.8,4-1.1c6.7-1.8,13-4.1,19.3-6.8c0.6-0.3,1.3-0.5,1.9-0.8c2-0.9,3.9-1.8,5.8-2.8c0.4-0.2,0.7-0.4,1.1-0.6
	c1.2-0.6,2.3-1.2,3.5-1.8c0.6-0.3,0.6-0.3,1.2-0.6c16.8-8.6,32.4-20.5,44.1-35.5c0.4-0.6,0.9-1.1,1.3-1.7c2.9-3.6,5.5-7.3,7.8-11.3
	c0.4-0.7,0.8-1.4,1.2-2.1c3.5-5.8,6-11.5,8-17.9c0.4-1.1,0.7-2.2,1.1-3.3c1.8-5,2.8-9.9,3.6-15.1c0.1-0.4,0.1-0.8,0.2-1.2
	c1.4-9.6,1.6-19.1,0.1-28.7c-0.2-1.1-0.3-2.1-0.4-3.2c-1.4-10.7-6.2-20.8-11.6-30.2c-0.3-0.6-0.6-1.1-1-1.7
	c-4.5-7.4-10.3-13.7-16.3-19.9c-0.4-0.4-0.8-0.9-1.2-1.3c-2.8-2.9-5.9-5.4-9-7.9c-0.3-0.3-0.7-0.5-1-0.8
	c-5.6-4.4-11.2-8.4-17.3-12.1c-0.4-0.2-0.7-0.4-1.1-0.7c-9.6-5.7-20-10.4-30.6-13.9c-0.7-0.3-1.5-0.6-2.2-0.8
	c-17.5-6.6-35.8-9.4-54.3-11c-0.6-0.1-1.2-0.1-1.9-0.2c-5.9-0.5-11.7-0.5-17.6-0.5c-0.6,0-1.1,0-1.7,0
	C204.4,77.2,184.7,78.1,167.1,84.3z"/>
<linearGradient id="SVGID_00000154425165869246970030000000455124348308962186_" gradientUnits="userSpaceOnUse" x1="240.3146" y1="526.7707" x2="553.3146" y2="210.7707">
	<stop  offset="0" style="stop-color:#F42267"/>
	<stop  offset="1" style="stop-color:#4A2D7F"/>
</linearGradient>
<path style="fill:url(#SVGID_00000154425165869246970030000000455124348308962186_);" d="M455.6,221c9,1.7,19.9,12.8,26.4,18.8
	c0.5,0.5,1,0.9,1.5,1.4c7.1,6.8,12.6,14.7,17.3,23.3c0.3,0.6,0.6,1.1,0.9,1.7c3.5,6.7,6.1,13.9,7.4,21.3c0.4,2.4,0.9,4.7,1.4,7.1
	c1.4,6.9,1.8,13.7,1.7,20.8c0,0.4,0,0.8,0,1.3c0,9.5-0.9,18.6-3.4,27.7c-0.4,1.4-0.7,2.8-1,4.3c-0.6,2.7-1.5,5.1-2.5,7.7
	c-0.2,0.5-0.4,0.9-0.6,1.4c-4.7,11.3-10.9,21.3-19.3,30.2c-1.1,1.2-2.2,2.5-3.3,3.7c-0.4,0.5-0.9,1-1.3,1.5c-0.4,0-0.7,0-1.1,0
	c-0.2,0.5-0.2,0.5-0.4,1c-0.7,1.2-1.3,1.9-2.4,2.7c-0.3,0.3-0.7,0.6-1,0.9c-0.4,0.3-0.7,0.6-1.1,0.9c-0.4,0.3-0.8,0.6-1.2,0.9
	c-8.4,6.7-17.3,12.1-26.7,17.3c-0.8,13.7,2.6,27.2,6.8,40.1c0.6,2,1.2,4,1.8,6c1.1,3.5,2.5,6.8,4,10.1c0.7,1.5,1.3,3,1.9,4.6
	c0.2,0.4,0.4,0.9,0.6,1.3c1,2.7,1,5.8,0,8.5c-1.2,2.1-2.6,3.8-4.8,4.9c-4.4,1.2-9.3,0.5-13.6-0.7c-0.6-0.1-1.1-0.3-1.7-0.4
	c-2.5-0.7-4.9-1.8-7.3-2.8c-0.5-0.2-1-0.4-1.5-0.6c-7.2-3.2-14.2-6.8-20.7-11.2c-0.5-0.3-1-0.6-1.5-1c-9.3-6-18.1-13-26.3-20.5
	c-1.1-1-2.2-2-3.3-2.9c-2.5-2.2-4.8-4.5-7.1-6.8c-0.4-0.4-0.8-0.8-1.2-1.2c-0.4-0.4-0.8-0.8-1.2-1.2c-0.5-0.5-0.5-0.5-1.1-1.1
	c-0.8-0.9-0.8-0.9-1.4-2c-0.9,0.1-0.9,0.1-1.9,0.3c-3.9,0.4-7.9,0.4-11.8,0.4c-0.4,0-0.9,0-1.3,0c-2.3,0-4.5,0-6.8,0
	c-1.8,0-3.7,0-5.5,0c-15.4,0.1-30.1-1.1-45.3-4.3c-1.1-0.2-2.3-0.4-3.4-0.6c-4.9-0.8-9.5-2.1-14.1-3.7c-2.1-0.7-4.3-1.3-6.4-1.9
	c-3.1-0.9-5.9-2.1-8.8-3.5c-1.6-0.8-3.3-1.4-5-2c-17.1-6.5-34.2-17.8-46.8-31c-1.1-1.2-1.1-1.2-2.5-2.2c-1.2-1-2.1-1.9-3.1-3.1
	c-1-1.2-2-2.3-3-3.5c-0.3-0.4-0.7-0.8-1-1.2c-0.5-0.5-0.5-0.5-1-1.1c-0.7-0.9-0.7-0.9-0.7-2c2.4-0.5,4.7-0.6,7.1-0.7
	c0.6,0,0.6,0,1.1,0c3.5-0.1,7-0.1,10.4-0.1c2.3,0,4.7-0.1,7-0.1c2.3-0.1,4.5-0.1,6.8-0.1c0.9,0,1.7,0,2.6-0.1c6.8-0.2,10.1,1.5,15,6
	c1.9,1.3,3.7,2.5,5.9,3.2c0,0.4,0,0.7,0,1.1c0.6,0.2,0.6,0.2,1.3,0.3c1.7,0.6,3,1.3,4.5,2.3c2.1,1.3,4.1,2.3,6.3,3.3
	c1.1,0.5,2.2,1,3.3,1.6c2.5,1.2,5,2.1,7.6,3c0.4,0.2,0.9,0.3,1.3,0.5c0.9,0.3,1.8,0.6,2.7,0.9c1,0.3,1.9,0.7,2.9,1
	c4.4,1.6,8.8,2.5,13.3,3.3c1.2,0.2,2.5,0.5,3.7,0.7c2.6,0.5,5.3,0.9,7.9,1.4c0.7,0.1,0.7,0.1,1.4,0.2c8.9,1.4,17.8,1.7,26.8,1.7
	c1.5,0,3,0,4.6,0c9.8,0.1,18.9-0.6,28.5-2.4c2.6-0.5,5-0.8,7.6-0.6c1.1,1.1,1.8,2,2.6,3.3c0.5,0.7,0.9,1.4,1.4,2.1
	c0.2,0.4,0.5,0.7,0.7,1.1c1.1,1.6,2.4,3.1,3.6,4.6c0.2,0.3,0.5,0.6,0.7,0.9c2.6,3,5.4,5.7,8.2,8.5c1.2,1.2,2.5,2.5,3.7,3.7
	c5.4,5.5,11.7,10,17.8,14.6c-0.1-0.5-0.1-0.9-0.2-1.4c-0.7-4.6-1.1-9.1-1.4-13.7c0-0.7-0.1-1.4-0.1-2.1c-0.1-1.4-0.2-2.9-0.3-4.3
	c-0.1-1.8-0.2-3.6-0.4-5.5c-0.1-1.8-0.2-3.5-0.4-5.3c0-0.6-0.1-1.3-0.1-1.9c-0.3-4.6-0.3-9.1-0.3-13.7c4.9-2.6,9.8-5.2,14.7-7.6
	c10.1-5,19.2-11.1,27.6-18.6c0.6-0.6,1.3-1.1,1.9-1.7c8.2-7.6,14.7-18.9,17.7-29.7c0.1-0.4,0.2-0.8,0.4-1.2
	c4.1-12.8,4-27.6,1.5-40.7c-0.2-0.8-0.3-1.6-0.4-2.4c-0.9-5-2.4-9.4-4.5-13.9c-0.3-0.7-0.3-0.7-0.7-1.4c-1.6-3.3-3.6-6-5.9-8.8
	c-0.6-0.9-1.3-1.7-2-2.6c-1.4-1.8-2.7-3.1-4.5-4.4c-0.9-0.9-1.8-1.8-2.7-2.7c-3.4-3.2-7-5.9-10.8-8.6c0.7-3.9,1.7-7.6,2.9-11.4
	C453.7,235.4,455.1,228.5,455.6,221z"/>
</svg>
