<svg width="540" height="540" viewBox="0 0 540 540" fill="none" xmlns="http://www.w3.org/2000/svg">
<path d="M215.783 47.0443C216.421 47.0391 217.06 47.0339 217.717 47.0285C219.784 47.0151 221.851 47.0083 223.918 47.0044C224.625 47.003 225.332 47.0016 226.061 47.0001C237.887 46.9904 249.509 47.5907 261.228 49.1811C262.257 49.3193 263.287 49.4491 264.317 49.5784C272.944 50.6669 281.28 52.5696 289.678 54.8035C291.336 55.2371 292.999 55.6398 294.666 56.04C297.823 56.8255 300.864 57.8484 303.924 58.9481C305.006 59.332 306.088 59.7154 307.171 60.0983C307.691 60.2825 308.21 60.4666 308.746 60.6563C310.385 61.2278 312.034 61.765 313.687 62.294C316.723 63.2665 319.537 64.3752 322.347 65.8806C323.576 66.5024 324.79 67.0027 326.079 67.4853C329.558 68.8586 332.844 70.5722 336.155 72.3049C336.476 72.4724 336.798 72.64 337.128 72.8127C351.431 80.2868 364.195 89.439 376.428 99.9268C376.817 100.255 377.206 100.583 377.607 100.921C387.725 109.466 396.086 120.311 403.07 131.485C403.749 132.554 404.457 133.584 405.193 134.614C406.035 135.993 406.035 135.993 406.035 138.147C406.39 138.147 406.745 138.147 407.111 138.147C409.413 142.512 411.375 146.794 412.969 151.474C413.495 153 414.066 154.487 414.681 155.978C415.03 156.852 415.378 157.727 415.724 158.602C415.989 159.261 415.989 159.261 416.26 159.933C418.159 165.069 418.932 170.457 419.775 175.846C419.947 176.918 420.13 177.988 420.326 179.056C421.196 184.038 421.32 188.921 421.309 193.962C421.309 194.403 421.309 194.843 421.309 195.296C421.296 201.84 420.936 208.291 420.165 214.788C420.123 215.154 420.081 215.519 420.037 215.895C418.992 224.699 416.561 233.019 413.773 241.401C413.632 241.824 413.492 242.248 413.347 242.684C411.271 248.902 408.954 254.76 405.567 260.399C404.962 261.413 404.387 262.439 403.818 263.474C399.203 271.84 393.7 279.565 387.225 286.589C386.267 287.633 385.348 288.698 384.435 289.781C379.571 295.347 374.222 300.531 368.353 305.022C368.059 305.252 367.765 305.483 367.462 305.72C357.48 313.539 346.774 320.201 335.516 326.016C335.06 326.253 334.603 326.49 334.133 326.734C331.383 328.14 328.634 329.354 325.726 330.39C325.011 330.648 324.297 330.908 323.583 331.168C323.123 331.332 323.123 331.332 322.653 331.5C321.349 332.004 320.068 332.557 318.784 333.11C311.798 336.106 304.753 338.372 297.396 340.276C295.809 340.687 294.224 341.106 292.639 341.526C284.317 343.721 276.114 345.533 267.555 346.505C266.766 346.598 265.976 346.69 265.187 346.783C263.653 346.962 262.118 347.139 260.584 347.315C258.893 347.508 257.204 347.705 255.514 347.906C248.004 348.781 240.55 349.247 232.987 349.254C232.279 349.256 231.57 349.257 230.839 349.259C229.352 349.262 227.865 349.263 226.379 349.263C224.874 349.263 223.369 349.267 221.864 349.274C213.156 349.316 204.659 349.318 196.094 347.548C195.895 348.048 195.895 348.048 195.691 348.558C194.907 349.89 194.276 350.214 192.865 350.778C192.865 351.134 192.865 351.489 192.865 351.855C191.564 353.245 190.021 354.41 188.558 355.623C188.263 355.87 187.969 356.117 187.665 356.371C182.052 361.061 176.237 365.411 170.256 369.619C169.924 369.852 169.593 370.086 169.252 370.326C167.265 371.721 165.269 373.104 163.258 374.464C162.794 374.778 162.33 375.091 161.851 375.414C157.974 378.018 154.047 380.529 150.069 382.976C149.768 383.161 149.468 383.346 149.158 383.537C141.112 388.478 132.878 393.034 124.379 397.147C123.488 397.58 122.6 398.02 121.713 398.461C114.212 402.083 106.168 404.65 98.1224 406.762C97.6963 406.884 97.2703 407.005 96.8313 407.13C92.718 408.207 87.8334 408.749 83.8572 406.998C81.7469 405.747 80.4755 404.028 79.2816 401.918C79.0859 401.579 78.8902 401.24 78.6886 400.891C77.5308 398.193 77.7499 395.15 78.7012 392.417C79.5405 390.694 80.4679 389.036 81.4348 387.383C82.4347 385.657 83.4324 383.93 84.4292 382.202C84.7035 381.728 84.9778 381.254 85.2604 380.765C87.5137 376.833 89.6007 372.83 91.629 368.778C91.915 368.209 92.2009 367.64 92.4955 367.053C95.092 361.814 97.3623 356.475 99.2663 350.947C99.4025 350.556 99.5387 350.165 99.679 349.762C100.06 348.666 100.438 347.569 100.814 346.472C100.987 345.967 101.161 345.463 101.34 344.943C101.713 343.84 102.082 342.739 102.429 341.627C102.608 341.089 102.787 340.551 102.971 339.997C103.74 337.286 103.889 334.501 104.111 331.702C104.181 330.88 104.181 330.88 104.252 330.042C104.365 328.7 104.475 327.358 104.582 326.016C104.101 325.868 103.62 325.721 103.125 325.568C101.529 325.002 100.261 324.381 98.8289 323.493C98.3619 323.203 97.8949 322.914 97.4138 322.616C96.937 322.317 96.4603 322.018 95.9692 321.71C95.2957 321.303 95.2957 321.303 94.6087 320.887C82.861 313.662 71.9683 304.313 63.1324 293.718C62.7771 293.303 62.4218 292.888 62.0558 292.46C59.514 289.437 57.1723 286.307 54.8895 283.086C54.6184 282.704 54.3473 282.323 54.068 281.93C49.6747 275.661 49.6747 275.661 49.6747 273.8C49.3194 273.8 48.9641 273.8 48.5981 273.8C48.3247 273.253 48.0513 272.707 47.7696 272.143C47.592 271.788 47.4144 271.433 47.2314 271.067C46.8366 270.278 46.4423 269.487 46.0483 268.697C45.1939 266.984 44.3367 265.274 43.4568 263.575C39.8082 256.493 36.4224 249.189 34.581 241.418C34.1942 239.871 33.7698 238.389 33.2773 236.876C31.2735 230.7 30.1227 224.716 29.4019 218.269C29.2186 216.736 28.9974 215.213 28.7648 213.686C26.7617 200.171 25.5554 183.52 30.2956 170.445C30.4367 169.575 30.5522 168.699 30.632 167.821C30.6723 167.4 30.7125 166.98 30.754 166.547C30.7804 166.234 30.8067 165.922 30.8339 165.6C31.1892 165.6 31.5445 165.6 31.9105 165.6C31.8855 165.055 31.8606 164.51 31.8348 163.948C31.9139 161.738 32.3461 160.192 33.1217 158.131C33.368 157.475 33.6144 156.818 33.8682 156.142C34.6147 154.264 35.3985 152.416 36.2485 150.582C36.7625 149.435 37.1944 148.275 37.63 147.096C40.2528 140.482 43.8191 134.155 48.0597 128.457C48.65 127.596 49.2401 126.736 49.8262 125.872C55.0986 118.13 61.3434 111.362 67.9771 104.772C68.4615 104.275 68.9458 103.778 69.4449 103.266C72.892 99.7399 76.4307 96.4612 80.3582 93.4671C80.724 93.1881 81.0898 92.9092 81.4666 92.6218C87.3854 88.1357 93.4324 83.932 99.7373 80.0094C100.148 79.75 100.559 79.4907 100.983 79.2235C109.665 73.7602 118.718 69.2211 128.268 65.4751C128.912 65.21 129.556 64.9449 130.219 64.6718C134.587 62.8821 138.992 61.3079 143.483 59.8544C145.162 59.3098 146.823 58.7338 148.479 58.1259C165.346 52.0388 183.726 49.0562 201.55 47.8275C202.975 47.7198 204.392 47.5814 205.813 47.4365C209.138 47.1329 212.446 47.0672 215.783 47.0443ZM167.139 84.3095C165.725 84.755 164.434 85.0421 162.982 85.2978C159.388 85.9882 156.021 87.2637 152.592 88.5214C151.956 88.7507 151.32 88.9801 150.665 89.2164C142.177 92.2064 142.177 92.2064 134.031 95.9925C132.713 96.6299 131.399 97.1628 130.034 97.6915C127.304 98.772 124.745 100.052 122.178 101.474C121.721 101.727 121.263 101.98 120.792 102.241C111.214 107.634 102.053 113.961 93.961 121.413C92.8321 122.45 91.6822 123.455 90.5188 124.453C82.3068 131.624 75.8441 140.228 70.1304 149.451C69.8188 149.94 69.5072 150.43 69.1862 150.934C68.9094 151.377 68.6325 151.82 68.3472 152.277C68.1162 152.646 67.8851 153.016 67.647 153.396C66.5038 155.599 65.6495 157.908 64.7473 160.217C64.3827 161.116 64.0175 162.015 63.6518 162.913C61.3616 168.642 59.664 174.016 58.8259 180.135C58.717 180.792 58.608 181.449 58.4958 182.126C56.9067 192.644 57.6199 203.068 59.3642 213.51C59.4506 214.049 59.537 214.587 59.626 215.142C59.8916 216.797 60.1643 218.451 60.4408 220.104C60.5236 220.604 60.6063 221.103 60.6916 221.618C61.2693 224.929 62.1112 228.075 63.1324 231.274C63.2796 231.758 63.4268 232.243 63.5784 232.742C65.9267 240.449 68.7777 247.455 72.8219 254.421C73.1312 254.965 73.1312 254.965 73.4467 255.52C82.6423 271.667 95.1627 285.475 110.958 295.347C112.074 296.045 113.174 296.769 114.255 297.522C115.678 298.429 117.053 299.093 118.612 299.728C120.715 300.635 122.716 301.756 124.735 302.835C127.867 304.503 131.008 306.14 134.189 307.714C134.156 308.484 134.123 309.254 134.09 310.025C134.058 310.776 134.058 310.776 134.025 311.542C133.977 312.658 133.928 313.774 133.878 314.889C133.754 317.643 133.638 320.395 133.552 323.15C133.236 332.552 131.194 340.675 128.27 349.582C127.058 353.296 126.004 357.045 124.989 360.817C124.678 361.965 124.338 363.107 123.961 364.236C125.771 363.563 127.315 362.803 128.907 361.713C129.324 361.428 129.741 361.143 130.17 360.85C130.608 360.546 131.046 360.243 131.497 359.93C131.953 359.615 132.409 359.301 132.878 358.977C136.644 356.362 140.282 353.622 143.879 350.778C144.484 350.31 145.091 349.843 145.697 349.376C150.14 345.944 154.401 342.333 158.614 338.624C159.388 337.947 160.171 337.281 160.955 336.616C161.349 336.282 161.742 335.949 162.147 335.605C162.474 335.331 162.801 335.057 163.138 334.774C163.92 334.12 163.92 334.12 163.796 333.014C164.084 332.893 164.372 332.771 164.669 332.646C166.364 331.708 167.758 330.478 169.213 329.212C169.838 328.676 170.463 328.139 171.088 327.604C171.4 327.336 171.712 327.069 172.034 326.793C173.842 325.255 175.689 323.766 177.55 322.292C178.871 321.23 178.871 321.23 179.834 320.034C181.485 318.148 182.843 317.339 185.337 317.134C190.633 316.963 195.97 317.545 201.227 318.139C201.671 318.189 202.115 318.239 202.572 318.291C203.795 318.435 205.016 318.592 206.237 318.753C212.803 319.591 219.29 319.727 225.903 319.691C226.445 319.689 226.987 319.688 227.546 319.686C240.261 319.64 252.595 318.873 265.12 316.585C267.023 316.255 268.933 315.995 270.847 315.737C275.982 315.037 280.844 313.886 285.803 312.392C287.133 312.001 288.469 311.638 289.808 311.28C296.466 309.482 302.795 307.181 309.139 304.484C309.78 304.215 310.421 303.947 311.082 303.67C313.044 302.809 314.965 301.881 316.877 300.918C317.247 300.732 317.616 300.546 317.997 300.354C319.173 299.759 320.347 299.161 321.52 298.562C322.098 298.268 322.098 298.268 322.688 297.968C339.53 289.361 355.107 277.517 366.738 262.496C367.18 261.943 367.622 261.39 368.077 260.82C370.95 257.201 373.532 253.489 375.853 249.485C376.256 248.795 376.664 248.107 377.075 247.422C380.528 241.67 383.081 235.926 385.096 229.529C385.456 228.423 385.838 227.324 386.231 226.229C388.001 221.223 389.059 216.341 389.784 211.087C389.841 210.691 389.898 210.295 389.956 209.887C391.317 200.268 391.53 190.831 390.046 181.21C389.886 180.139 389.754 179.067 389.625 177.992C388.189 167.245 383.421 157.143 378.042 147.836C377.723 147.281 377.403 146.726 377.073 146.154C372.592 138.796 366.767 132.482 360.817 126.304C360.411 125.876 360.006 125.449 359.589 125.009C356.801 122.13 353.735 119.627 350.589 117.153C350.255 116.888 349.921 116.623 349.577 116.351C344.024 111.965 338.338 107.904 332.286 104.233C331.92 104.011 331.554 103.788 331.176 103.559C321.578 97.8143 311.141 93.2059 300.526 89.6989C299.796 89.4227 299.066 89.1428 298.339 88.8578C280.829 82.2777 262.527 79.4963 244.004 77.8562C243.386 77.7991 242.767 77.742 242.13 77.6832C236.269 77.1965 230.401 77.1868 224.524 77.1833C223.969 77.1829 223.414 77.1826 222.842 77.1822C204.411 77.2012 184.666 78.0989 167.139 84.3095Z" fill="white"/>
<path d="M455.559 221.046C464.589 222.731 475.486 233.85 481.936 239.887C482.44 240.356 482.945 240.825 483.465 241.308C490.596 248.093 496.088 256.031 500.777 264.649C501.086 265.212 501.394 265.776 501.712 266.356C505.207 273.038 507.799 280.273 509.121 287.695C509.552 290.068 509.992 292.436 510.5 294.794C511.87 301.701 512.283 308.532 512.249 315.553C512.249 315.973 512.248 316.393 512.247 316.826C512.215 326.284 511.335 335.405 508.832 344.55C508.447 345.975 508.125 347.369 507.832 348.812C507.248 351.478 506.317 353.943 505.285 356.464C505.096 356.93 504.907 357.396 504.712 357.876C500.048 369.19 493.851 379.133 485.448 388.075C484.312 389.297 483.232 390.538 482.171 391.824C481.738 392.313 481.305 392.801 480.859 393.304C480.504 393.304 480.149 393.304 479.783 393.304C479.57 393.789 479.57 393.789 479.352 394.284C478.675 395.514 478.067 396.135 476.982 397.01C476.635 397.291 476.289 397.572 475.932 397.862C475.56 398.156 475.187 398.451 474.803 398.755C474.418 399.063 474.033 399.371 473.636 399.689C465.248 406.343 456.297 411.804 446.946 416.99C446.181 430.673 449.522 444.198 453.711 457.111C454.356 459.102 454.945 461.105 455.525 463.116C456.589 466.612 458.047 469.903 459.55 473.226C460.233 474.747 460.875 476.266 461.48 477.819C461.675 478.259 461.87 478.7 462.071 479.154C463.056 481.903 463.108 484.95 462.086 487.698C460.917 489.751 459.484 491.49 457.323 492.559C452.928 493.75 448.028 493.078 443.716 491.815C443.158 491.669 442.599 491.523 442.023 491.373C439.499 490.648 437.109 489.622 434.699 488.585C434.208 488.373 433.716 488.162 433.209 487.944C425.991 484.787 419.036 481.14 412.494 476.742C412.003 476.425 411.512 476.108 411.005 475.781C401.733 469.744 392.857 462.813 384.721 455.315C383.636 454.325 382.534 453.365 381.422 452.407C378.947 450.247 376.624 447.949 374.308 445.621C373.895 445.211 373.483 444.8 373.058 444.377C372.666 443.985 372.274 443.593 371.871 443.188C371.341 442.658 371.341 442.658 370.801 442.116C369.968 441.214 369.968 441.214 369.43 440.137C368.504 440.266 368.504 440.266 367.559 440.398C363.636 440.831 359.691 440.786 355.749 440.804C355.323 440.806 354.897 440.808 354.458 440.81C352.191 440.822 349.924 440.829 347.657 440.834C345.82 440.839 343.983 440.85 342.145 440.868C326.701 441.01 312.044 439.732 296.885 436.608C295.738 436.38 294.591 436.179 293.438 435.988C288.557 435.174 283.981 433.866 279.288 432.317C277.165 431.617 275.032 431.022 272.871 430.448C269.751 429.574 266.934 428.353 264.022 426.942C262.383 426.177 260.744 425.544 259.043 424.93C241.934 418.458 224.879 407.162 212.286 393.889C211.167 392.723 211.167 392.723 209.792 391.668C208.594 390.708 207.647 389.761 206.659 388.594C205.659 387.421 204.66 386.253 203.629 385.108C203.285 384.726 202.942 384.345 202.588 383.951C202.114 383.429 202.114 383.429 201.631 382.896C200.939 382 200.939 382 200.939 380.923C203.338 380.468 205.642 380.293 208.081 380.239C208.648 380.225 208.648 380.225 209.226 380.212C212.701 380.137 216.177 380.095 219.653 380.062C221.981 380.04 224.307 380.007 226.634 379.949C228.896 379.893 231.157 379.864 233.42 379.853C234.275 379.845 235.131 379.827 235.985 379.799C242.746 379.591 246.056 381.26 251.002 385.768C252.888 387.096 254.724 388.265 256.923 388.998C256.923 389.353 256.923 389.709 256.923 390.075C257.556 390.241 257.556 390.241 258.202 390.411C259.899 391.055 261.211 391.752 262.744 392.699C264.806 393.973 266.853 395.038 269.09 395.967C270.207 396.458 271.271 396.994 272.353 397.556C274.807 398.792 277.337 399.691 279.936 400.572C280.376 400.724 280.816 400.876 281.269 401.032C282.184 401.347 283.1 401.659 284.018 401.967C284.983 402.295 285.944 402.635 286.902 402.985C291.263 404.539 295.659 405.457 300.201 406.293C301.445 406.522 302.688 406.761 303.931 407.001C306.558 407.5 309.191 407.95 311.831 408.377C312.54 408.493 312.54 408.493 313.264 408.61C322.171 410.011 331.023 410.279 340.017 410.262C341.542 410.259 343.066 410.267 344.59 410.284C354.343 410.392 363.521 409.733 373.106 407.88C375.72 407.392 378.081 407.047 380.734 407.3C381.867 408.443 382.523 409.285 383.325 410.631C383.78 411.328 384.239 412.024 384.7 412.717C384.932 413.072 385.164 413.426 385.404 413.792C386.519 415.425 387.761 416.934 389.044 418.437C389.288 418.722 389.532 419.008 389.783 419.302C392.36 422.271 395.142 425.017 397.96 427.756C399.2 428.989 400.435 430.223 401.648 431.482C407.017 437.017 413.317 441.479 419.492 446.059C419.421 445.602 419.35 445.145 419.277 444.674C418.594 440.119 418.137 435.602 417.839 431.005C417.793 430.318 417.747 429.631 417.699 428.923C417.602 427.481 417.508 426.04 417.414 424.598C417.296 422.775 417.173 420.953 417.049 419.13C416.928 417.358 416.812 415.585 416.696 413.813C416.652 413.172 416.608 412.53 416.563 411.87C416.271 407.287 416.216 402.739 416.262 398.149C421.138 395.562 426.013 392.984 430.965 390.546C441.049 385.534 450.203 379.482 458.562 371.925C459.202 371.346 459.852 370.778 460.505 370.212C468.736 362.632 475.187 351.263 478.168 340.55C478.293 340.164 478.418 339.777 478.546 339.379C482.615 326.611 482.57 311.768 480.02 298.7C479.865 297.909 479.719 297.116 479.582 296.321C478.725 291.365 477.176 286.969 475.039 282.413C474.714 281.718 474.714 281.718 474.383 281.01C472.774 277.738 470.784 274.997 468.478 272.185C467.828 271.322 467.177 270.458 466.527 269.595C465.168 267.844 463.81 266.507 462.019 265.187C461.121 264.29 460.224 263.393 459.327 262.496C455.949 259.316 452.355 256.549 448.561 253.883C449.249 249.981 450.279 246.279 451.488 242.511C453.703 235.411 455.15 228.499 455.559 221.046Z" fill="white"/>
</svg>
