<svg width="942" height="523" viewBox="0 0 942 523" fill="none" xmlns="http://www.w3.org/2000/svg">
<path d="M425.259 279.589C425.872 269.304 426.239 258.957 427.157 248.671C427.647 243.529 428.933 238.386 430.218 233.304C431.075 229.814 433.769 229.079 436.892 231.039C439.892 232.939 441.361 235.754 441.667 239.243C442.463 249.161 443.504 259.018 443.932 268.936C444.483 280.508 444.545 292.14 444.667 303.711C444.727 308.611 442.585 310.874 437.749 311.609C431.994 312.464 428.504 310.504 427.096 304.813C426.116 300.773 425.688 296.609 425.443 292.446C425.198 288.161 425.383 283.875 425.383 279.589C425.383 279.589 425.319 279.589 425.259 279.589ZM411.056 209.734C411.607 206.184 411.301 203.183 407.811 200.856C406.28 199.816 405.79 196.816 405.484 194.55C404.443 187.081 407.627 180.714 412.096 175.265C423.545 161.49 438.483 155.306 456.361 156.408C461.81 156.708 466.585 159.163 470.932 162.408C472.156 163.328 473.626 164.123 475.156 164.488C480.666 165.898 485.319 168.223 487.279 174.038C488.809 178.508 488.564 182.916 486.054 186.956C478.646 199.14 467.748 207.038 454.83 212.487C445.279 216.527 435.484 217.142 425.443 214.202C424.892 214.002 423.973 214.252 423.484 214.652C422.198 215.692 421.096 216.977 419.933 218.142C416.81 221.262 413.26 220.467 411.913 216.242C411.362 214.222 411.362 211.938 411.056 209.734ZM440.075 201.53C440.135 201.78 440.195 202.03 440.26 202.325C446.015 201.1 451.832 200.245 457.403 198.53C464.627 196.265 470.811 192.04 475.648 186.101C478.586 182.491 478.403 177.775 474.423 175.51C472.28 174.285 468.974 174.47 466.342 174.9C459.974 175.82 454.342 178.755 449.505 182.92C444.24 187.51 439.342 192.532 434.383 197.491C433.648 198.226 433.526 199.511 433.097 200.491C434.138 200.841 435.179 201.346 436.22 201.531C437.506 201.631 438.79 201.53 440.075 201.53ZM437.688 173C437.568 172.75 437.443 172.55 437.323 172.325C430.282 173.795 423.731 175.935 419.323 182.365C417.119 185.61 415.466 188.794 417.242 193.202C424.16 186.345 430.953 179.673 437.688 173ZM634.888 249.774C632.99 248.794 630.847 247.629 628.766 246.529C625.46 244.814 622.215 243.159 621.419 238.937C621.114 237.282 621.359 236.427 622.889 236.062C625.399 235.452 627.909 234.717 630.48 234.407C638.011 233.427 645.48 232.202 653.011 231.772C661.643 231.272 670.337 231.037 678.969 231.672C681.418 231.872 683.99 235.102 685.765 237.427C687.357 239.572 689.439 243.182 688.643 244.774C687.663 246.734 683.929 247.959 681.235 248.204C673.459 248.999 665.684 249.244 657.909 249.549C652.46 249.749 649.337 252.304 648.419 257.692C647.868 260.877 648.97 262.407 652.215 262.467C655.031 262.467 657.847 262.017 660.664 262.017C663.603 262.017 666.541 261.917 669.357 262.567C674.745 263.792 676.704 270.403 672.663 274.199C671.439 275.364 668.929 275.609 667.031 275.669C660.296 275.869 653.623 275.869 646.888 275.769C643.888 275.769 641.99 277.239 641.011 279.749C639.48 283.789 638.256 287.953 636.664 292.912C639.174 292.962 641.133 293.362 642.97 293.012C652.704 291.177 662.317 288.667 672.418 289.337C675.785 289.587 675.908 292.212 676.888 294.297C677.745 296.257 677.929 298.337 676.031 299.868C666.48 307.521 656.378 314.133 643.95 316.031C637.644 317.011 631.46 316.281 625.705 313.521C619.644 310.646 617.991 304.95 617.134 298.889C616.216 292.154 619.093 286.338 621.848 280.583C623.501 277.153 623.93 273.848 622.213 270.298C620.928 267.663 622.948 264.053 625.948 263.685C629.315 263.235 631.09 261.42 631.947 258.298C632.621 255.603 633.725 253.08 634.888 249.774ZM555.788 234.896C564.237 238.446 568.767 245.182 573.175 252.039C579.542 261.957 585.91 271.936 592.277 281.855C595.522 280.57 595.766 278.12 595.522 275.671C594.236 263.059 591.542 250.753 588.114 238.631C586.828 234.041 585.726 229.447 584.869 224.794C584.379 222.039 584.134 219.039 587.073 216.958C593.624 220.143 597.726 225.652 601.215 231.896C607.032 242.304 610.766 253.447 612.481 265.202C614.195 276.773 613.95 288.222 607.46 298.507C605.93 300.892 603.848 303.037 601.644 304.813C597.297 308.303 593.44 307.933 589.399 304.138C582.604 297.771 577.338 290.302 572.93 282.159C569.747 276.282 566.441 270.465 563.196 264.649C562.766 263.854 562.216 263.059 561.481 261.894C558.91 265.504 559.094 269.302 558.971 272.853C558.726 279.098 559.276 285.404 558.726 291.587C558.296 296.669 556.89 301.628 555.481 306.587C554.869 308.792 553.828 311.487 550.89 311.487C547.4 311.487 544.584 309.587 543.543 306.222C542.441 302.857 541.706 299.242 541.4 295.753C540.543 285.773 542.747 275.978 543.91 266.182C544.889 257.794 547.277 249.896 550.828 242.305C552.114 239.61 554.135 237.344 555.788 234.896ZM499.034 310.691C487.156 310.591 475.953 307.936 466.218 300.834C460.892 296.914 456.728 292.018 457.524 284.671C458.137 279.222 461.565 275.12 466.83 273.712C482.197 269.547 496.83 271.752 510.911 278.916C513.727 280.326 514.095 282.711 511.646 283.876C507.85 285.651 503.931 287.611 499.891 288.101C496.279 288.551 492.36 287.246 488.687 286.266C483.483 284.856 478.462 282.656 473.197 281.611C470.871 281.161 467.748 282.286 465.606 283.631C462.667 285.466 463.218 288.466 466.463 289.692C474.116 292.567 482.013 293.367 490.217 292.507C499.829 291.527 509.074 289.382 518.258 286.507C518.563 286.457 518.809 286.307 519.054 286.257C521.258 285.522 523.707 284.297 523.462 281.912C523.217 279.767 521.809 276.952 520.095 275.912C516.238 273.647 511.952 271.567 507.544 270.77C497.993 269.055 488.258 268.2 478.585 267.16C473.197 266.55 467.687 266.485 462.3 265.875C456.055 265.14 452.688 259.997 453.055 252.712C453.3 247.63 455.565 243.896 459.606 240.896C468.177 234.59 477.912 231.284 488.32 229.569C503.442 227.059 518.319 228.959 533.196 231.529C535.523 231.979 538.89 232.754 538.645 235.449C538.4 238.019 536.258 240.531 534.605 242.857C534.115 243.532 532.401 243.467 531.237 243.592C520.462 244.447 509.687 245.247 498.911 245.982C489.605 246.657 480.361 247.757 471.361 250.392C470.565 250.642 469.953 251.372 469.279 251.922C469.953 252.657 470.504 253.822 471.3 253.942C474.789 254.737 478.341 255.352 481.892 255.842C491.81 257.127 501.728 258.167 511.585 259.577C516.176 260.187 520.768 261.292 525.299 262.332C528.727 263.127 531.176 265.637 532.707 268.516C537.727 278.005 539.38 287.679 533.38 297.536C530.38 302.496 525.544 304.882 520.462 306.903C513.544 309.658 506.381 310.816 499.034 310.691ZM717.54 316.568C711.907 316.568 712.03 316.618 710.009 321.895C703.459 338.915 698.928 356.424 695.622 374.302C695.132 376.872 694.826 379.506 694.336 382.077C693.785 385.077 692.377 385.752 689.683 384.647C681.786 381.402 678.541 374.851 677.316 367.015C675.48 355.076 678.112 343.566 681.786 332.301C685.031 322.383 688.827 312.648 692.377 302.791C692.682 301.871 692.99 300.586 692.622 299.851C687.786 290.484 688.092 280.688 690.418 270.893C694.52 253.995 704.133 240.403 717.051 229.077C717.724 228.467 719.01 228.157 719.867 228.342C720.297 228.442 720.724 229.932 720.724 230.792C720.479 238.017 716.867 244.078 713.744 250.323C710.255 257.241 706.826 264.159 703.642 271.2C702.724 273.22 702.785 275.73 702.601 278.057C702.541 278.852 703.152 279.772 703.458 280.567C704.132 280.117 704.989 279.892 705.479 279.342C711.785 272.056 717.968 264.709 724.336 257.546C731.866 249.098 740.131 241.567 750.845 237.159C754.519 235.629 757.58 236.119 760.764 238.079C766.274 241.569 768.478 247.202 769.702 253.14C772.58 266.977 770.927 280.323 762.172 291.711C750.907 306.221 736.397 315.527 717.54 316.568ZM724.764 292.752C725.009 293.002 725.315 293.302 725.56 293.547C726.907 293.497 728.377 293.747 729.601 293.297C738.601 290.237 747.417 286.93 753.295 278.665C757.58 272.665 759.907 266.114 759.295 258.767C759.11 256.807 757.213 255.032 756.172 253.135C754.887 253.87 753.295 254.42 752.376 255.46C746.009 262.745 739.519 269.908 733.703 277.561C730.152 282.216 727.703 287.671 724.764 292.752ZM227.202 137C231.672 137.35 236.141 137.795 240.549 138.165C256.283 139.39 271.711 142.33 286.895 146.614C305.629 151.879 323.445 159.287 340.465 168.715C352.343 175.328 363.485 182.98 373.954 191.613C383.567 199.511 392.26 208.388 399.546 218.49C409.403 232.081 416.321 246.898 415.77 264.224C415.465 274.326 411.239 283.08 405.178 290.856C394.709 304.202 380.873 312.896 364.893 318.223C353.2 322.143 341.139 324.222 328.833 323.978C319.343 323.778 309.792 323.368 300.303 322.693C296.691 322.443 293.078 321.408 289.466 320.613C287.752 320.263 286.956 320.613 286.16 322.328C285.119 324.653 283.834 327.043 282.12 328.878C277.406 333.838 269.324 332.248 266.998 325.758C265.834 322.513 265.283 318.962 264.732 315.534C263.936 311.064 261.549 308.187 257.324 306.35C238.835 298.208 223.284 286.33 211.835 269.555C210.733 267.965 209.815 266.25 208.897 264.535C206.019 259.208 207.305 253.76 212.142 250.147C221.692 243.045 232.345 238.392 243.794 235.454C250.345 233.739 256.957 232.209 263.569 230.864C265.712 230.414 265.651 229.029 265.835 227.434C266.753 218.434 267.671 209.434 268.835 200.495C269.2 197.555 270.182 194.618 271.1 191.802C272.141 188.432 274.59 187.822 277.222 190.027C282.12 194.007 283.59 199.639 284.447 205.455C285.365 211.883 286.039 218.373 286.834 224.801C287.139 227.126 287.875 228.656 290.753 228.721C295.344 228.771 299.875 229.331 304.406 229.701C319.038 230.741 333.303 233.131 346.527 239.926C353.568 243.536 358.099 248.68 359.445 256.701C360.792 264.843 354.486 273.17 345.67 274.088C342.487 274.388 339.242 274.188 336.058 273.988C335.079 273.938 333.854 273.008 333.487 272.213C333.242 271.663 334.16 270.313 334.895 269.703C336.548 268.233 338.384 266.888 340.16 265.603C344.568 262.418 344.568 259.42 339.425 257.522C333.364 255.317 327.058 253.542 320.691 252.379C310.773 250.544 300.732 249.259 290.692 247.969C286.406 247.419 285.855 248.169 285.794 252.624C285.609 260.828 285.059 269.032 285.243 277.236C285.428 285.317 286.284 293.337 286.896 301.419C287.016 303.564 288.426 304.544 290.324 304.784C303.977 306.804 317.568 307.724 331.405 306.129C341.201 304.964 350.813 303.189 359.935 299.394C369.241 295.539 378.608 291.435 384.975 283.231C395.261 269.946 395.322 255.497 388.894 240.62C381.363 223.294 368.874 209.886 353.629 199.233C343.344 192.07 332.507 185.397 321.426 179.519C307.957 172.295 293.814 166.417 278.998 162.315C270.855 160.11 262.774 157.6 254.509 156.254C243.427 154.419 232.162 153.254 220.958 152.399C213.122 151.789 205.163 151.899 197.265 152.399C192.306 152.699 187.408 154.234 182.51 155.339C181.714 155.539 181.102 156.194 179.938 156.994C180.979 157.544 181.591 158.034 182.204 158.219C184.04 158.769 186 159.074 187.775 159.874C188.816 160.374 189.551 161.529 190.469 162.444C189.428 163.364 188.326 165.079 187.347 165.014C182.755 164.714 178.102 164.094 173.572 163.179C172.531 162.979 171.858 161.034 171 159.934C171 158.954 171 157.974 171 156.994C172.837 154.119 174.184 150.688 176.633 148.484C183.245 142.545 191.571 140.157 200.204 138.871C205.285 138.136 210.428 137.646 215.509 137.096C219.366 137.046 223.284 137 227.202 137ZM262.834 295.018C263.446 288.222 264.181 282.589 264.426 277.018C264.731 268.63 264.671 260.243 264.731 251.855C264.731 249.895 263.69 249.225 261.731 249.345C256.895 249.695 251.997 249.695 247.16 250.14C237.058 250.935 227.262 253.08 217.711 256.446C214.16 257.731 211.099 261.65 215.017 265.814C217.466 268.444 219.793 271.201 222.487 273.528C230.14 280.201 238.895 285.221 248.078 289.446C252.609 291.591 257.508 293.056 262.834 295.018Z" fill="white"/>
</svg>
