<svg width="942" height="523" viewBox="0 0 942 523" fill="none" xmlns="http://www.w3.org/2000/svg">
<path d="M771 292.098V302.899H769.188V294.575H769.074L766.07 302.899H764.51L761.529 294.575V302.899H759.694V292.098H762.423L765.427 300.56L768.27 292.098H771ZM758.525 292.098V293.657H755.016V302.898H753.204V293.657H749.696V292.098H758.525ZM713.164 275.975C715.892 267.146 715.892 261.94 713.278 258.546C711.328 256.207 708.484 255.037 704.174 255.037C694.565 255.037 689.244 260.495 684.955 274.163C682.203 283.13 682.203 288.335 684.817 291.707C686.629 293.931 689.632 295.102 693.922 295.102C703.393 295.102 708.874 289.758 713.164 275.975ZM750.727 256.207C754.488 260.909 755.291 266.871 753.066 274.164C746.829 294.322 723.299 305.88 688.44 305.88C667.641 305.88 653.491 301.844 647.23 294.047C643.469 289.369 642.826 283.268 645.028 275.975C651.265 255.817 674.795 244.259 709.653 244.259C730.317 244.259 744.627 248.41 750.727 256.207ZM620.719 246.208H657.641C655.417 249.19 615.261 303.151 614.596 304.069H557.928C557.653 302.372 550.888 248.295 550.635 246.208H585.357C585.608 247.905 590.424 286.777 590.424 286.777C590.424 286.777 620.191 246.988 620.719 246.208ZM506.167 275.975C508.897 267.146 509.035 261.94 506.305 258.546C504.47 256.207 501.49 255.037 497.338 255.037C487.707 255.037 482.249 260.495 478.097 274.163C475.23 283.13 475.23 288.335 477.959 291.707C479.771 293.931 482.775 295.102 486.926 295.102C496.558 295.102 502.017 289.758 506.167 275.975ZM543.87 256.207C547.653 260.909 548.434 266.871 546.094 274.164C539.857 294.322 516.304 305.88 481.606 305.88C460.806 305.88 446.633 301.844 440.372 294.047C436.611 289.369 435.832 283.268 438.034 275.975C444.409 255.817 467.938 244.259 502.659 244.259C523.459 244.259 537.632 248.41 543.87 256.207ZM435.189 253.364C436.611 255.176 437.391 256.987 437.001 259.601L422.576 304.184H384.347L397.878 262.584C398.382 260.772 397.74 259.212 396.708 258.043C394.873 255.818 390.975 254.397 377.582 255.313C377.582 255.313 361.736 303.542 361.46 304.184H323.253C323.621 303.152 341.187 249.466 341.439 248.938C354.718 246.599 372.261 244.397 390.47 244.397C415.168 244.397 430.236 247.379 435.189 253.364ZM295.687 265.588C296.467 261.941 295.298 259.212 293.989 257.653C292.568 255.818 289.426 253.479 282.936 253.479C273.717 253.479 266.814 257.905 264.474 265.312L259.933 282.352L295.687 265.588ZM327.793 265.45C327.793 268.179 327.151 270.518 326.624 271.55C325.454 271.825 258.765 286.64 258.765 286.64C258.765 286.64 258.099 289.897 260.576 291.593C263.833 293.933 267.342 294.575 273.305 294.828C288.005 295.47 307.91 286.893 313.484 284.439C312.589 287.282 306.856 299.781 306.603 300.423C304.126 301.34 290.343 305.744 263.305 305.881C253.03 306.019 234.707 304.712 227.162 295.217C223.401 290.54 222.737 283.911 225.328 275.587C231.451 255.703 254.339 244.26 287.867 244.26C306.603 244.26 318.826 247.769 324.422 254.649C326.624 257.515 327.793 261.161 327.793 265.45ZM197.647 218H235.488C234.708 220.454 209.23 302.624 208.817 304.069H171C171.779 301.592 197.257 219.422 197.647 218Z" fill="white"/>
</svg>
