<svg width="942" height="523" viewBox="0 0 942 523" fill="none" xmlns="http://www.w3.org/2000/svg">
<path d="M752.154 209.154L771 190.115H582.346C558.885 152.808 517.923 128 471.192 128C424.462 128 383.5 152.808 360.038 190.115H171L189.846 209.154H350.038C346.962 216.269 344.654 223.769 342.923 231.462H211.769L230.615 250.5H340.038C339.654 254.154 339.462 257.808 339.462 261.654C339.462 265.5 339.654 269.154 340.038 272.808H252.538L271.385 291.846H342.923C344.654 299.731 347.154 307.423 350.423 314.731C350.423 314.538 350.231 314.346 350.231 314.154H293.308L312.154 333.192H360.038C383.5 370.5 424.462 395.308 471.192 395.308C517.923 395.308 558.885 370.5 582.346 333.192H629.846L648.692 314.154H592.346C592.346 314.346 592.154 314.538 592.154 314.731C595.231 307.423 597.731 299.731 599.654 291.846H670.808L689.654 272.808H602.731C603.115 269.154 603.308 265.5 603.308 261.654C603.308 257.808 603.115 254.154 602.731 250.5H711.385L730.231 231.462H599.462C597.731 223.769 595.231 216.269 592.346 209.154C592.346 209.154 752.154 209.154 752.154 209.154ZM357.154 328.385C357.154 328.577 357.346 328.577 357.346 328.769C357.346 328.769 357.154 328.577 357.154 328.385ZM354.462 323.385C354.654 323.577 354.654 323.769 354.846 323.962C354.654 323.769 354.462 323.577 354.462 323.385ZM471.192 376.269C408.885 376.269 358.308 324.923 358.308 261.654C358.308 198.385 408.885 147.038 471.192 147.038C533.5 147.038 584.077 198.385 584.077 261.654C584.077 324.923 533.5 376.269 471.192 376.269ZM587.731 324.154C587.923 323.962 587.923 323.769 588.115 323.577C587.923 323.577 587.731 323.769 587.731 324.154ZM585.038 328.769C585.038 328.577 585.231 328.577 585.231 328.385C585.231 328.577 585.038 328.769 585.038 328.769Z" fill="white"/>
<path d="M391.961 291.846H380.231V230.885H397.731L412.923 279.539L428.115 230.885H445.615V291.654H433.5V246.654L419.461 291.654H406.385L391.961 246.269V291.846Z" fill="white"/>
<path d="M471.577 291.846H459.077V230.885H471.577V291.846Z" fill="white"/>
<path d="M497.154 291.846H485.231V230.885H499.846L523.692 274.923V230.885H535.615V291.654H521L497.154 247.808V291.846Z" fill="white"/>
<path d="M561.577 291.846H549.077V230.885H561.577V291.846Z" fill="white"/>
</svg>
