<svg width="942" height="523" viewBox="0 0 942 523" fill="none" xmlns="http://www.w3.org/2000/svg">
<path d="M494.375 113.014C492.412 113.317 490.525 120.544 486.732 124.31C483.957 127.027 480.494 126.857 478.654 130.217C477.956 131.472 478.182 133.614 477.39 135.671C475.842 139.785 470.388 140.153 470.388 144.636C470.369 149.477 474.936 150.401 478.89 153.836C481.976 156.601 482.278 158.507 486.014 159.847C489.205 160.933 493.951 157.384 498.225 158.658C501.736 159.706 505.095 160.46 505.888 164.065C506.586 167.387 505.84 172.539 501.585 171.945C500.15 171.784 493.932 169.689 486.289 170.501C477.069 171.548 466.547 174.558 465.519 184.835C464.953 190.581 472.058 197.357 478.919 195.979C483.665 195.044 481.419 189.45 484.005 186.731C487.392 183.25 506.586 198.886 524.43 198.886C531.942 198.886 537.527 196.989 543.077 191.176C543.595 190.732 544.228 189.779 545.03 189.723C545.785 189.779 547.106 190.525 547.54 190.846C561.912 202.395 572.773 225.562 625.588 225.836C633.015 225.873 641.479 229.422 648.386 235.725C654.548 241.425 658.153 250.285 661.654 259.278C666.938 272.772 676.413 285.899 690.774 300.506C691.558 301.289 703.381 310.48 704.325 311.169C704.476 311.263 705.344 313.339 705.043 314.5C704.693 323.257 703.419 348.725 722.405 349.877C727.048 350.112 725.83 346.848 725.83 344.602C725.821 340.166 725.009 335.76 727.35 331.221C730.549 324.975 720.565 322.096 720.858 308.593C721.065 298.524 712.61 300.241 708.316 292.57C705.844 288.125 703.646 285.766 703.806 280.33C704.769 249.738 697.295 229.639 693.568 224.703C690.662 220.976 688.255 219.495 690.916 217.768C706.76 207.303 710.355 197.564 710.355 197.564C718.781 177.757 726.359 159.667 736.805 151.704C738.91 150.061 744.307 146.033 747.619 144.447C757.367 139.851 762.5 137.068 765.332 134.312C769.814 129.943 773.352 120.837 769.058 115.317C763.718 108.504 754.479 113.911 750.403 116.326C721.273 133.614 716.98 164.112 706.891 181.626C698.843 195.62 685.754 205.897 674.054 206.737C665.277 207.387 655.822 205.613 646.405 201.48C623.503 191.44 610.971 178.475 608.018 176.182C601.865 171.435 554.098 124.545 515.399 122.63C515.399 122.63 510.597 113.015 509.388 112.854C506.557 112.495 503.661 118.601 501.585 119.309C499.631 119.959 496.348 112.693 494.375 113.014ZM324.011 392.869C320.368 392.784 317.274 389.793 317.274 386.094L317.283 265.383H277.499V398.446C277.499 404.966 282.783 410.289 289.266 410.289H358.803C365.332 410.289 370.551 404.966 370.551 398.446V265.383H330.805L330.767 386.094C330.767 389.793 327.672 392.784 324.011 392.869ZM457.215 265.383H397.001C389.877 265.383 384.074 271.177 384.074 278.377V410.288H423.894V289.287C423.922 285.578 426.923 282.643 430.623 282.643C434.34 282.643 437.322 285.512 437.407 289.183V410.289H477.068V289.182C477.115 285.511 480.097 282.643 483.805 282.643C487.486 282.643 490.525 285.577 490.553 289.286V410.289H530.374V278.377C530.374 271.177 524.561 265.383 517.437 265.383H457.215ZM224.259 289.541C224.287 285.511 221.003 282.643 217.521 282.643H210.765V355.935H217.521C221.032 355.935 224.288 353.141 224.259 349.132V289.541ZM250.954 373.873H210.765V410.289H171V265.383H251.21C258.39 265.383 263.995 271.215 263.995 278.434V360.823C263.995 368.052 258.173 373.873 250.954 373.873ZM666.835 377.884C658.842 377.884 652.132 384.791 652.132 393.162C652.132 401.56 658.842 408.411 667.089 408.411C675.271 408.411 681.895 401.56 681.895 393.162C681.895 384.772 675.271 377.884 667.089 377.884H666.835ZM684.745 393.114C684.745 402.956 676.856 410.959 667.089 410.959C657.218 410.959 649.292 403.014 649.292 393.114C649.292 383.404 657.218 375.289 666.797 375.289C676.856 375.289 684.745 383.16 684.745 393.114Z" fill="white"/>
<path d="M665.249 391.982C668.014 391.982 669.467 391.001 669.467 389.038C669.467 387.292 668.061 386.396 665.371 386.396H664.579V391.982H665.249ZM675.431 403.438H670.684L664.579 395.313V403.438H660.701V382.895H664.777C670.317 382.895 673.26 384.99 673.26 388.991C673.26 391.661 671.524 394.03 669.099 394.738L668.816 394.842L675.431 403.438ZM597.138 355.964V289.239C597.043 285.549 594.071 282.719 590.362 282.719C586.691 282.719 583.653 285.662 583.625 289.343V355.964H597.138ZM597.138 410.289V373.912H583.625V410.289H543.879V278.378C543.879 271.178 549.682 265.384 556.806 265.384H623.955C631.099 265.384 636.902 271.178 636.902 278.378V410.288L597.138 410.289Z" fill="white"/>
</svg>
