<svg width="1003" height="347" viewBox="0 0 1003 347" fill="none" xmlns="http://www.w3.org/2000/svg">
<path d="M132.4 309.7C109.9 309.5 88.8 295.5 81.8 276.1C78.7 267.5 78.7 258.9 81.4 250.2C98 197.6 114.6 144.9 131.2 92.3002C138.2 70.0002 154.3 58.9002 177.8 59.8002C200.5 60.7002 221.3 76.2002 227.1 96.4002C229.1 103.3 229.3 110.2 227.1 117.1C209.7 172.3 192.4 227.5 174.8 282.6C169.5 299.4 152.4 309.9 132.4 309.7Z" fill="white"/>
<path d="M49.9 244.6C33.7 244.7 18.6 233.9 15.7 219.3C14.8 214.8 15.3 209.6 16.6 205.2C27 171.3 38.3 137.7 48.2 103.7C53.2 87.1001 68.7 79.4001 85 83.1001C96.9 85.8001 105.8 92.5001 110.3 104.3C112.5 110.1 112 116 110.2 121.9C99.4 156 88.6 190.1 77.9 224.2C73.8 237.3 63.8 244.6 49.9 244.6Z" fill="white"/>
<path d="M256.1 134.3C273.8 134.7 289.1 147.3 290 162.7C290.2 166.4 289.6 170.4 288.5 174C277.9 208.1 267.1 242.2 256.2 276.3C252 289.5 242.1 296.6 228.2 296.7C210.6 296.8 195.1 284.3 193.5 268.4C193.1 264.7 193.8 260.7 194.9 257.1C205.6 222.8 216.4 188.6 227.3 154.3C231.6 141.2 242 133.9 256.1 134.3Z" fill="white"/>
<path d="M866.2 246.1C878 233.8 892.2 230 908.4 232.6C922 234.7 933.3 243.6 934.6 257.1C936.7 278.7 936.6 300.5 937.5 322.5C929.5 322.5 923 322.5 915.8 322.5C915.8 320.6 915.8 318.8 915.8 317C915.8 301.8 915.9 286.7 915.7 271.5C915.6 260.2 910.7 253 902.2 250.4C888.8 246.4 875.7 254.1 873 267.8C872.2 271.7 872 275.7 872 279.7C871.9 293.8 872 308 872 322.4C865 322.4 858.4 322.4 851.2 322.4C851.2 319.8 851.2 317.4 851.2 314.9C851.2 302.1 851.2 289.2 851.2 276.4C851.2 274.7 851.2 273.1 851.1 271.4C850.3 256.8 843.8 249.6 831.2 249.5C817.8 249.4 808.5 257.8 807.9 271.6C807.3 286.4 807.6 301.3 807.5 316.1C807.5 318.1 807.5 320 807.5 322.3C800.4 322.3 793.9 322.3 787 322.3C787 292.5 787 262.8 787 232.8C793.4 232.8 799.7 232.8 806.3 232.8C806.5 236 806.6 239.1 806.8 243.1C815.8 234.5 826.2 231.2 837.7 231.7C849.3 232.3 859.3 236.1 866.2 246.1Z" fill="white"/>
<path d="M349.9 322.5C349.9 283.2 349.9 244.3 349.9 205C357 205 363.9 205 371.2 205C371.2 221 371.2 237 371.2 253.3C391.7 253.3 411.8 253.3 432.3 253.3C432.3 237.3 432.3 221.4 432.3 205.1C439.6 205.1 446.5 205.1 453.7 205.1C453.7 244.2 453.7 283.2 453.7 322.5C446.7 322.5 440 322.5 432.5 322.5C432.5 306 432.5 289.6 432.5 273C411.9 273 392 273 371.4 273C371.4 289.5 371.4 305.9 371.4 322.5C364.1 322.5 357.3 322.5 349.9 322.5Z" fill="white"/>
<path d="M488 147.6C481.5 147.6 475.4 147.6 468.7 147.6C468.7 144.2 468.7 141 468.7 136.5C456.1 148.4 442.1 150.7 426.8 147.3C416.7 145.1 408.4 139.8 402.2 131.4C389 113.6 390.5 85.5 405.5 70C421.3 53.6 445.3 52.7 467.4 67.8C467.4 52.8 467.4 38.1 467.4 23C474.4 23 481 23 488 23C488 64.4 488 105.7 488 147.6ZM441 130.8C456.8 130.8 467.7 119.5 467.8 103C467.9 86.1 457.1 74.6 441.2 74.5C425.3 74.4 414.2 86.2 414.3 102.8C414.4 119.3 425.4 130.8 441 130.8Z" fill="white"/>
<path d="M672.1 197.9C678.9 197.9 685.4 197.9 692.5 197.9C692.5 212.6 692.5 227.1 692.5 242.8C701.3 235 710.8 232.1 721.2 231.8C743.5 231.1 758.5 243.9 759.6 266.1C760.5 284.7 759.8 303.4 759.8 322.4C753 322.4 746.3 322.4 739 322.4C739 315.5 739 308.7 739 301.9C739 292.1 739.1 282.2 738.9 272.4C738.6 257.6 731.6 250 718.7 249.7C703.7 249.3 693.5 257.8 693 272.2C692.4 286.8 692.7 301.5 692.6 316.2C692.6 318.2 692.6 320.1 692.6 322.5C685.6 322.5 679.1 322.5 672.1 322.5C672.1 281.1 672.1 239.7 672.1 197.9Z" fill="white"/>
<path d="M670.4 109.8C645.9 109.8 622.8 109.8 599.3 109.8C601.1 119.3 606.5 125.4 614.8 128.4C628.3 133.3 641 131.5 652.7 121.7C656.2 125.7 659.8 129.8 664.4 135C659.2 138.4 654.7 142.4 649.4 144.5C634 150.7 618.4 150.4 603.3 143.5C584.9 135.1 575.6 116 578.9 94.4002C581.8 75.0002 596.7 60.3002 616.4 57.5002C642 53.9002 662.6 66.7002 668.2 90.3002C669.7 96.3002 669.7 102.7 670.4 109.8ZM649.7 95.6002C647.8 81.2002 637 72.9002 622 73.8002C610 74.5002 599.9 84.3002 599.7 95.6002C616.3 95.6002 632.8 95.6002 649.7 95.6002Z" fill="white"/>
<path d="M774.4 109.7C750 109.7 727.1 109.7 703.4 109.7C704.7 118.3 709.3 124.2 716.5 127.4C730.7 133.7 744.1 131.9 756.7 121.8C760.2 125.8 763.8 129.9 768.4 135.1C763 138.5 758.3 142.6 752.8 144.7C737.9 150.7 722.8 150.3 708.1 143.9C689.1 135.6 679.5 116.4 682.8 94.4002C685.7 75.0002 700.7 60.3002 720.3 57.5002C745.9 53.9002 766.5 66.7002 772.1 90.3002C773.7 96.3002 773.7 102.7 774.4 109.7ZM753.7 95.6002C751.9 81.3002 741 72.9002 726 73.8002C714 74.5002 703.9 84.3002 703.6 95.6002C720.2 95.6002 736.8 95.6002 753.7 95.6002Z" fill="white"/>
<path d="M479.9 242.8C483.8 240.7 487.2 238.4 491 236.9C504.8 231.4 519.1 230.1 533.6 233.7C547.8 237.3 557.2 247.2 557.8 261.9C558.6 282 558 302.1 558 322.5C552 322.5 545.7 322.5 539 322.5C539 319.5 539 316.5 539 312.7C526.2 324.9 511.7 325.9 496.7 321.5C481.1 317 473.4 301.8 478.9 287.3C483.1 276.3 492.3 271.8 503.1 270.8C512.5 269.9 522 270.1 531.5 269.8C533.5 269.7 535.4 269.8 537.3 269.8C538.2 258.3 531.6 250.8 520.1 249.9C508.6 248.9 497.9 251.3 488 258.1C485.4 253 482.8 248.2 479.9 242.8ZM537.4 283.9C528.5 283.9 519.9 283.9 511.3 283.9C509.8 283.9 508.4 284.4 506.9 284.8C501.3 286.4 498.3 289.8 497.9 294.8C497.5 300.3 499.8 304.7 504.9 306.8C513.6 310.4 522.1 309.5 530.1 304.5C537.6 299.7 538.9 292.5 537.4 283.9Z" fill="white"/>
<path d="M784.6 138.5C787.2 133.4 789.6 128.5 791.8 124.1C799.8 126.5 807.4 129.6 815.3 130.9C821.4 131.9 827.9 131.2 834.1 130.5C838.7 130 842.3 127.3 842.6 122.1C842.8 116.8 838.8 115 834.6 114.1C825.5 112.1 816.3 110.7 807.3 108.5C791.9 104.6 785.1 94.2001 787.9 79.3001C789.4 71.1001 794.7 65.7001 801.8 62.1001C814.2 55.8001 827.5 55.7001 840.8 58.1001C847.2 59.3001 853.5 61.7001 860.5 63.7001C857.5 69.7001 855 74.6001 852.2 80.1001C850.6 79.3001 849.1 78.6001 847.7 78.0001C837.8 73.7001 827.6 72.4001 817 74.6001C815.2 75.0001 813.1 75.5001 812.1 76.7001C810.3 79.0001 808 81.9001 808.1 84.5001C808.2 86.7001 811 90.1001 813.2 90.8001C821.1 93.2001 829.3 94.6001 837.4 96.5001C840.8 97.3001 844.2 98.1001 847.5 99.2001C868.2 106.3 866.1 130.4 854.3 139.4C847 145 838.7 147.2 829.8 148.2C814.9 150 795 145.9 784.6 138.5Z" fill="white"/>
<path d="M575.4 313.9C578.2 308.3 580.7 303.4 582.9 299.1C591 301.5 598.5 304.6 606.4 305.9C612.6 306.9 619.3 306.2 625.7 305.4C630 304.9 633.4 302 633.6 297.1C633.8 292.1 630.1 290.2 626 289.3C616.1 287.1 606.1 285.5 596.3 282.9C582.2 279.1 575.8 268.1 578.9 253.9C581 244.6 587.5 239.1 595.9 235.7C607.5 231 619.7 230.9 631.7 233.2C638.1 234.5 644.4 236.8 651.4 238.8C648.4 244.8 645.9 249.8 643.5 254.5C637.4 252.7 631.6 250.3 625.7 249.5C619.9 248.7 613.8 249.4 607.9 249.8C606.2 249.9 604 250.6 603 251.9C601.2 254.2 598.9 257.2 599.1 259.7C599.2 261.9 602 265.3 604.3 266C612.1 268.4 620.1 269.8 628 271.6C631.7 272.5 635.5 273.2 639 274.6C655.9 281.1 659.5 302 645.9 313.9C638.7 320.2 629.9 322.5 620.6 323.3C604.8 324.7 589.9 321.9 575.4 313.9Z" fill="white"/>
<path d="M371 147.5C363.8 147.5 357 147.5 350 147.5C350 108.4 350 69.4001 350 30.1001C356.8 30.1001 363.7 30.1001 371 30.1001C371 69.0001 371 108.1 371 147.5Z" fill="white"/>
<path d="M536.6 57.9998C536.6 62.0998 536.6 65.7998 536.6 70.9998C545.1 59.8998 555.9 56.9998 568.2 56.7998C568.2 63.5998 568.2 70.1998 568.2 76.9998C564.8 76.9998 561.5 76.5998 558.3 77.0998C546.5 78.7998 538.5 87.2998 538 99.4998C537.5 113.6 537.7 127.8 537.6 141.9C537.6 143.7 537.6 145.5 537.6 147.5C530.5 147.5 523.9 147.5 517 147.5C517 117.6 517 87.9998 517 57.9998C523.5 57.9998 529.7 57.9998 536.6 57.9998Z" fill="white"/>
<path d="M964.1 232.7C968.9 232.7 973.4 232.7 977.9 232.7C979.9 232.7 981.9 232.7 984.2 232.7C984.2 262.7 984.2 292.4 984.2 322.4C977.6 322.4 971 322.4 964.1 322.4C964.1 292.8 964.1 263.1 964.1 232.7Z" fill="white"/>
<path d="M974.2 192.7C981.6 192.6 987.5 197.8 987.6 204.5C987.8 211.8 981.8 217.6 974.3 217.6C966.8 217.6 960.9 212.1 960.9 205.2C960.8 198.3 966.7 192.8 974.2 192.7Z" fill="white"/>
</svg>
